<svg xmlns="http://www.w3.org/2000/svg" viewBox="3 12 368 41.5"><defs><clipPath id="b"><path d="M337 12h28.848v32H337Zm0 0"/></clipPath><clipPath id="a"><path d="M0 0h366v57H0z"/></clipPath></defs><g clip-path="url(#a)" transform="translate(4 9)"><path fill="#2563eb" d="M12.928 10.017V3.364h-8.55v6.653Zm0 32.8v-29.17h-8.55v29.172Zm31.686.001V21.86c0-5.922-3.133-8.942-9.055-8.942-4.078 0-6.817 1.621-8.215 3.297v-2.57h-8.719v29.172h8.606V26.5c0-3.914.562-6.707 4.527-6.707 3.465 0 4.246 2.293 4.246 5.031v17.993Zm5.584-39.454v39.454h7.938v-3.075c1.34 1.844 4.3 3.856 8.492 3.856 9.445 0 12.742-8.438 12.742-15.926 0-9.555-5.476-14.863-12.465-14.863-5.25 0-7.039 2.12-8.324 3.52V3.363Zm20.79 24.532c0 2.57-.391 9.332-6.204 9.332-5.14 0-6.425-4.582-6.425-9.219 0-6.762 3.129-8.941 6.761-8.941 5.364 0 5.868 6.203 5.868 8.828m41.293.336c0-6.985-3.742-15.477-15.98-15.477-10.899 0-15.368 7.934-15.368 15.309 0 11.511 8.047 15.648 15.645 15.648 9.781 0 15.703-6.035 15.703-15.48m-8.715.28c0 4.36-2.125 8.325-6.875 8.325-5.031 0-7.097-3.855-7.097-8.715 0-6.093 3.41-8.55 6.652-8.55 4.691 0 7.32 2.738 7.32 8.94m37.438 14.306-9.89-15.536 8.828-13.636h-9.219l-4.137 7.433-3.855-7.433h-9.723L121.836 27l-9.89 15.817h9.5l4.863-9.055 5.531 9.055Zm41.519 0c-.726-1.063-.84-2.012-.84-4.528V21.247c0-7.043-7.542-8.383-12.574-8.383-6.367 0-12.293 2.63-12.293 9.055h8.606c.223-1.285.894-3.41 4.527-3.41 3.13 0 3.297 2.516 3.297 3.52v1.62c-6.426 1.231-9.5 1.844-11.512 2.684-3.632 1.508-6.148 4.75-6.148 8.383 0 4.191 2.906 8.883 9.559 8.883 4.468 0 6.648-1.899 8.941-3.406v2.625Zm-9.277-13.97v1.286c0 4.133-2.57 7.152-5.922 7.152-2.46 0-3.297-1.957-3.297-2.96 0-1.286.727-2.684 3.688-3.633Zm29.392-9.222v-5.254h-5.7V5.208h-8.491v9.11h-4.25v5.253h4.25v15.2c0 6.816 3.629 8.27 8.324 8.27 3.129 0 4.863-.337 5.422-.446v-6.652s-2.403.058-3.02.058c-1.34 0-2.234-.45-2.234-2.402V19.626Zm28.612 23.192v-19.95c0-6.203-3.243-10.004-9.278-10.004-1.676 0-5.14.391-8.324 3.915V3.364h-8.606v39.454h8.606V27.45c0-4.582 1.062-7.265 4.636-7.265 4.246 0 4.414 3.855 4.414 6.875v15.758Zm14.025 0V3.364h-8.55v39.454Zm33.194-12.798v-.39c0-8.101-3.688-16.875-14.64-16.875-11.403 0-14.977 8.715-14.977 16.035 0 9.446 5.867 15.09 14.75 15.09 6.039 0 11.234-2.906 14.53-8.437l-6.48-3.356c-.894 2.402-3.3 5.2-7.379 5.2-3.968 0-6.648-3.02-6.648-6.93v-.336Zm-20.844-5.363c.39-2.347 2.066-5.757 6.145-5.757 3.523 0 5.703 2.515 5.812 5.757Zm38.947-5.031v-5.254h-5.7V5.208h-8.492v9.11h-4.25v5.253h4.25v15.2c0 6.816 3.63 8.27 8.324 8.27 3.13 0 4.864-.337 5.422-.446v-6.652s-2.402.058-3.02.058c-1.34 0-2.234-.45-2.234-2.402V19.626Zm11.009-9.609V3.364h-8.55v6.653Zm0 32.8v-29.17h-8.55v29.172Zm24.588-10.226c-.617 1.844-2.293 4.36-5.645 4.36-4.75 0-6.484-5.087-6.484-8.774 0-3.52 1.621-8.773 6.203-8.773 3.356 0 4.918 2.457 5.703 4.078l6.367-3.633c-4.078-6.48-9.832-7.04-12.46-7.04-6.594 0-14.641 3.97-14.641 15.645 0 10.953 7.656 15.313 14.473 15.313 4.472 0 9.668-2.067 12.964-7.824Zm0 0"/><g clip-path="url(#b)"><path fill="#2563eb" d="M364.633 17.056a21.3 21.3 0 0 0-12.964-4.36c-8.215 0-12.348 4.81-12.348 9.782 0 4.468 2.848 7.488 9.777 8.66l2.63.45c3.128.5 4.636.948 4.636 2.57 0 1.843-2.348 2.847-5.195 2.847-3.133 0-6.372-1.789-8.497-4.023l-5.421 4.918c2.125 2.293 6.875 5.644 14.14 5.644 6.09 0 13.801-2.906 13.801-10.172 0-5.418-4.191-7.988-10.504-9.164l-2.07-.39c-3.406-.672-4.75-1.118-4.75-2.516 0-1.621 2.18-2.234 4.023-2.234 2.738 0 5.535 1.34 7.434 2.906Zm0 0"/></g></g></svg>