<svg xmlns="http://www.w3.org/2000/svg" width="1024" height="1024" viewBox="0 0 768 768"><defs><clipPath id="a"><path d="M12 0h744c3.184 0 6.234 1.266 8.484 3.516S768 8.816 768 12v744c0 3.184-1.266 6.234-3.516 8.484A12 12 0 0 1 756 768H12a12 12 0 0 1-8.484-3.516A12 12 0 0 1 0 756V12c0-3.184 1.266-6.234 3.516-8.484S8.816 0 12 0m0 0"/></clipPath><clipPath id="c"><path d="M0 0h768v768H0Zm0 0"/></clipPath><clipPath id="d"><path d="M12 0h744c3.184 0 6.234 1.266 8.484 3.516S768 8.816 768 12v744c0 3.184-1.266 6.234-3.516 8.484A12 12 0 0 1 756 768H12a12 12 0 0 1-8.484-3.516A12 12 0 0 1 0 756V12c0-3.184 1.266-6.234 3.516-8.484S8.816 0 12 0m0 0"/></clipPath><clipPath id="b"><path d="M0 0h768v768H0z"/></clipPath><clipPath id="f"><path d="M0 0h445v558H0z"/></clipPath><linearGradient id="e" x1="0" x2="256" y1="256" y2="0" gradientTransform="scale(3)" gradientUnits="userSpaceOnUse"><stop offset="0" stop-color="#2563eb"/><stop offset=".008" stop-color="#2563eb"/><stop offset=".016" stop-color="#2664eb"/><stop offset=".023" stop-color="#2765eb"/><stop offset=".031" stop-color="#2865ec"/><stop offset=".039" stop-color="#2966ec"/><stop offset=".047" stop-color="#2a66ec"/><stop offset=".055" stop-color="#2b67ec"/><stop offset=".063" stop-color="#2b68ec"/><stop offset=".07" stop-color="#2c68ec"/><stop offset=".078" stop-color="#2d69ec"/><stop offset=".086" stop-color="#2e6aed"/><stop offset=".094" stop-color="#2f6aed"/><stop offset=".102" stop-color="#306bed"/><stop offset=".109" stop-color="#306ced"/><stop offset=".117" stop-color="#316ced"/><stop offset=".125" stop-color="#326ded"/><stop offset=".133" stop-color="#336dee"/><stop offset=".141" stop-color="#346eee"/><stop offset=".148" stop-color="#356fee"/><stop offset=".156" stop-color="#366fee"/><stop offset=".164" stop-color="#3670ee"/><stop offset=".172" stop-color="#3771ee"/><stop offset=".18" stop-color="#3871ef"/><stop offset=".188" stop-color="#3972ef"/><stop offset=".195" stop-color="#3a72ef"/><stop offset=".203" stop-color="#3b73ef"/><stop offset=".211" stop-color="#3c74ef"/><stop offset=".219" stop-color="#3c74ef"/><stop offset=".227" stop-color="#3d75ef"/><stop offset=".234" stop-color="#3e76f0"/><stop offset=".242" stop-color="#3f76f0"/><stop offset=".25" stop-color="#4077f0"/><stop offset=".258" stop-color="#4178f0"/><stop offset=".266" stop-color="#4278f0"/><stop offset=".273" stop-color="#4279f0"/><stop offset=".281" stop-color="#4379f1"/><stop offset=".289" stop-color="#447af1"/><stop offset=".297" stop-color="#457bf1"/><stop offset=".305" stop-color="#467bf1"/><stop offset=".313" stop-color="#477cf1"/><stop offset=".32" stop-color="#477df1"/><stop offset=".328" stop-color="#487df1"/><stop offset=".336" stop-color="#497ef2"/><stop offset=".344" stop-color="#4a7ff2"/><stop offset=".352" stop-color="#4b7ff2"/><stop offset=".359" stop-color="#4c80f2"/><stop offset=".367" stop-color="#4d80f2"/><stop offset=".375" stop-color="#4d81f2"/><stop offset=".383" stop-color="#4e82f3"/><stop offset=".391" stop-color="#4f82f3"/><stop offset=".398" stop-color="#5083f3"/><stop offset=".406" stop-color="#5184f3"/><stop offset=".414" stop-color="#5284f3"/><stop offset=".422" stop-color="#5385f3"/><stop offset=".43" stop-color="#5385f4"/><stop offset=".438" stop-color="#5486f4"/><stop offset=".445" stop-color="#5587f4"/><stop offset=".453" stop-color="#5687f4"/><stop offset=".461" stop-color="#5788f4"/><stop offset=".469" stop-color="#5889f4"/><stop offset=".477" stop-color="#5989f4"/><stop offset=".484" stop-color="#598af5"/><stop offset=".492" stop-color="#5a8bf5"/><stop offset=".5" stop-color="#5b8bf5"/><stop offset=".508" stop-color="#5c8cf5"/><stop offset=".516" stop-color="#5d8cf5"/><stop offset=".523" stop-color="#5e8df5"/><stop offset=".531" stop-color="#5e8ef6"/><stop offset=".539" stop-color="#5f8ef6"/><stop offset=".547" stop-color="#608ff6"/><stop offset=".555" stop-color="#6190f6"/><stop offset=".563" stop-color="#6290f6"/><stop offset=".57" stop-color="#6391f6"/><stop offset=".578" stop-color="#6492f6"/><stop offset=".586" stop-color="#6492f7"/><stop offset=".594" stop-color="#6593f7"/><stop offset=".602" stop-color="#6693f7"/><stop offset=".609" stop-color="#6794f7"/><stop offset=".617" stop-color="#6895f7"/><stop offset=".625" stop-color="#6995f7"/><stop offset=".633" stop-color="#6a96f8"/><stop offset=".641" stop-color="#6a97f8"/><stop offset=".648" stop-color="#6b97f8"/><stop offset=".656" stop-color="#6c98f8"/><stop offset=".664" stop-color="#6d98f8"/><stop offset=".672" stop-color="#6e99f8"/><stop offset=".68" stop-color="#6f9af9"/><stop offset=".688" stop-color="#709af9"/><stop offset=".695" stop-color="#709bf9"/><stop offset=".703" stop-color="#719cf9"/><stop offset=".711" stop-color="#729cf9"/><stop offset=".719" stop-color="#739df9"/><stop offset=".727" stop-color="#749ef9"/><stop offset=".734" stop-color="#759efa"/><stop offset=".742" stop-color="#759ffa"/><stop offset=".75" stop-color="#769ffa"/><stop offset=".758" stop-color="#77a0fa"/><stop offset=".766" stop-color="#78a1fa"/><stop offset=".773" stop-color="#79a1fa"/><stop offset=".781" stop-color="#7aa2fb"/><stop offset=".789" stop-color="#7ba3fb"/><stop offset=".797" stop-color="#7ba3fb"/><stop offset=".805" stop-color="#7ca4fb"/><stop offset=".813" stop-color="#7da4fb"/><stop offset=".82" stop-color="#7ea5fb"/><stop offset=".828" stop-color="#7fa6fb"/><stop offset=".836" stop-color="#80a6fc"/><stop offset=".844" stop-color="#81a7fc"/><stop offset=".852" stop-color="#81a8fc"/><stop offset=".859" stop-color="#82a8fc"/><stop offset=".867" stop-color="#83a9fc"/><stop offset=".875" stop-color="#84aafc"/><stop offset=".883" stop-color="#85aafd"/><stop offset=".891" stop-color="#86abfd"/><stop offset=".898" stop-color="#86abfd"/><stop offset=".906" stop-color="#87acfd"/><stop offset=".914" stop-color="#88adfd"/><stop offset=".922" stop-color="#89adfd"/><stop offset=".93" stop-color="#8aaefe"/><stop offset=".938" stop-color="#8baffe"/><stop offset=".945" stop-color="#8caffe"/><stop offset=".953" stop-color="#8cb0fe"/><stop offset=".961" stop-color="#8db1fe"/><stop offset=".969" stop-color="#8eb1fe"/><stop offset=".977" stop-color="#8fb2fe"/><stop offset=".984" stop-color="#90b2ff"/><stop offset=".992" stop-color="#91b3ff"/><stop offset="1" stop-color="#92b4ff"/></linearGradient></defs><g clip-path="url(#a)"><g clip-path="url(#b)"><g clip-path="url(#c)"><g clip-path="url(#d)"><path fill="url(#e)" d="M-168.96-168.96H936.96V936.96H-168.96z"/></g></g></g></g><g clip-path="url(#f)" transform="translate(162 131)"><path fill="#545454" d="M119.547 91.418V25.293h3.82v3.82H38.349v-3.82h3.82v66.125h-3.82v-3.82h85.02v3.82Zm7.641 3.82h-92.66V21.473h92.66Zm-7.64 322.36V127.535h3.82v3.82h-85.02v-3.82h3.82v290.063h-3.82v-3.82h85.02v3.82Zm7.64 3.82h-92.66V123.715h92.66Zm303.094-1.664q-5.714-8.346-7.488-18.59c-1.012-5.82-1.516-15.348-1.516-28.574V203.11q0-44.387-41.601-64.493-31.114-15.04-79.606-15.039-24.113-.001-44.937 4.973-21.92 5.238-37.88 15.468-35.611 22.828-35.609 65.758h-3.82v-3.82h85.574v3.82l-3.765-.656q6.444-37.062 48.773-37.063c14.918 0 25.379 5.223 31.375 15.672q5.231 9.112 5.23 23.157v19.273l-3.101.594q-53.595 10.253-73.574 14.77-26.491 5.987-40.145 11.675-26.479 11.002-42.512 32.516-16.26 21.82-16.261 47.308 0 15.535 5.316 30.078 5.641 15.43 16.39 27.145 25.068 27.311 69.493 27.312c16.848 0 32.2-2.917 46.047-8.753q8.254-3.48 17.152-8.872 5.366-3.256 15.438-10.128a655 655 0 0 1 8.172-5.516l5.921-3.898v33.207h-3.82v-3.82h83.906v3.82Zm10.395 1.664h-94.97V391.48h3.821l2.102 3.192q-2.683 1.766-8.067 5.441-10.242 6.99-15.785 10.356-9.377 5.683-18.144 9.375c-14.801 6.234-31.137 9.355-49.016 9.355q-24.533-.002-44.219-8.242-18.075-7.57-30.902-21.543c-7.852-8.559-13.828-18.453-17.938-29.691q-5.781-15.812-5.78-32.7 0-28.02 17.773-51.875 17.29-23.198 45.703-35c9.507-3.965 23.308-7.988 41.398-12.078q20.102-4.545 73.82-14.82l.72 3.75h-3.821v-16.113q0-31.189-28.965-31.188-22.144 0-32.43 10.953-6.597 7.021-8.816 19.778l-.55 3.168h-92.606v-3.82q-.001-24.142 10.691-42.919 9.907-17.396 28.434-29.273 17.05-10.928 40.23-16.465c14.465-3.457 30.04-5.184 46.711-5.184q50.24 0 82.93 15.801 45.919 22.191 45.918 71.371v169.48q0 19.185 1.402 27.27c.996 5.739 3.086 10.93 6.266 15.582ZM345.012 278.68v12.78c0 10.524-1.574 20.423-4.718 29.688q-4.594 13.536-13.117 23.743-8.556 10.242-19.942 15.796-11.722 5.72-24.945 5.72-18.112-.001-28.485-12.337-4.042-4.81-6.21-10.82-1.91-5.303-1.91-10.113 0-27.145 39.327-39.758l60-20Zm-7.64 0h3.82l1.207 3.625-55.05 18.347q-34.025 10.917-34.024 32.485c0 2.316.488 4.828 1.46 7.523a27.5 27.5 0 0 0 4.868 8.492q8.084 9.615 22.637 9.614 11.456 0 21.594-4.946 9.918-4.834 17.43-13.828 7.61-9.112 11.745-21.3 4.313-12.706 4.313-27.231Zm0 0"/><path fill="#fff" d="M123.368 91.418V25.293h-85.02v66.125Zm0 326.18V127.535h-85.02v290.063Zm310.066 0c-7.222-10.56-8.336-20.004-8.336-45.008V203.11c0-70.016-75.015-83.352-125.027-83.352-63.348 0-122.246 26.117-122.246 90.02h85.574c2.223-12.782 8.89-33.9 45.008-33.9 31.117 0 32.785 25.009 32.785 35.009V227c-63.902 12.226-94.465 18.34-114.469 26.676-36.12 15-61.125 47.23-61.125 83.347 0 41.676 28.895 88.356 95.02 88.356 44.453 0 66.125-18.895 88.91-33.899v26.118ZM341.192 278.68v12.78c0 41.118-25.562 71.126-58.902 71.126-24.45 0-32.785-19.45-32.785-29.45 0-12.78 7.226-26.675 36.675-36.12Zm0 0"/></g></svg>