<svg xmlns="http://www.w3.org/2000/svg" xmlns:xlink="http://www.w3.org/1999/xlink" width="1326" zoomAndPan="magnify" viewBox="0 0 994.5 256.499992" height="342" preserveAspectRatio="xMidYMid meet" version="1.2"><defs><clipPath id="9e6f09d1d8"><path d="M 0.71875 0 L 993.28125 0 L 993.28125 256 L 0.71875 256 Z M 0.71875 0 "/></clipPath></defs><g id="77e1db93df"><g clip-rule="nonzero" clip-path="url(#9e6f09d1d8)"><path style=" stroke:none;fill-rule:nonzero;fill:#ffffff;fill-opacity:1;" d="M 0.71875 0 L 993.28125 0 L 993.28125 256 L 0.71875 256 Z M 0.71875 0 "/></g><g style="fill:#063472;fill-opacity:1;"><g transform="translate(55.773723, 173.593162)"><path style="stroke:none" d="M 29.910156 -79.085938 L 29.910156 -95.121094 L 9.296875 -95.121094 L 9.296875 -79.085938 Z M 29.910156 0 L 29.910156 -70.328125 L 9.296875 -70.328125 L 9.296875 0 Z M 29.910156 0 "/></g></g><g style="fill:#063472;fill-opacity:1;"><g transform="translate(89.993731, 173.593162)"><path style="stroke:none" d="M 72.082031 0 L 72.082031 -50.523438 C 72.082031 -64.804688 64.535156 -72.082031 50.253906 -72.082031 C 40.417969 -72.082031 33.816406 -68.171875 30.449219 -64.132812 L 30.449219 -70.328125 L 9.429688 -70.328125 L 9.429688 0 L 30.179688 0 L 30.179688 -39.339844 C 30.179688 -48.773438 31.527344 -55.507812 41.09375 -55.507812 C 49.445312 -55.507812 51.332031 -49.984375 51.332031 -43.382812 L 51.332031 0 Z M 72.082031 0 "/></g></g><g style="fill:#063472;fill-opacity:1;"><g transform="translate(166.248139, 173.593162)"><path style="stroke:none" d="M 9.296875 -95.121094 L 9.296875 0 L 28.429688 0 L 28.429688 -7.410156 C 31.660156 -2.964844 38.800781 1.886719 48.90625 1.886719 C 71.675781 1.886719 79.625 -18.457031 79.625 -36.511719 C 79.625 -59.550781 66.421875 -72.351562 49.582031 -72.351562 C 36.914062 -72.351562 32.605469 -67.230469 29.503906 -63.863281 L 29.503906 -95.121094 Z M 59.414062 -35.972656 C 59.414062 -29.773438 58.472656 -13.472656 44.460938 -13.472656 C 32.066406 -13.472656 28.96875 -24.519531 28.96875 -35.703125 C 28.96875 -52.003906 36.511719 -57.261719 45.269531 -57.261719 C 58.203125 -57.261719 59.414062 -42.304688 59.414062 -35.972656 Z M 59.414062 -35.972656 "/></g></g><g style="fill:#063472;fill-opacity:1;"><g transform="translate(245.331778, 173.593162)"><path style="stroke:none" d="M 79.894531 -35.164062 C 79.894531 -52.003906 70.867188 -72.484375 41.363281 -72.484375 C 15.089844 -72.484375 4.3125 -53.351562 4.3125 -35.570312 C 4.3125 -7.8125 23.710938 2.15625 42.035156 2.15625 C 65.613281 2.15625 79.894531 -12.394531 79.894531 -35.164062 Z M 58.878906 -34.492188 C 58.878906 -23.980469 53.757812 -14.417969 42.304688 -14.417969 C 30.179688 -14.417969 25.195312 -23.710938 25.195312 -35.433594 C 25.195312 -50.121094 33.414062 -56.046875 41.226562 -56.046875 C 52.542969 -56.046875 58.878906 -49.445312 58.878906 -34.492188 Z M 58.878906 -34.492188 "/></g></g><g style="fill:#063472;fill-opacity:1;"><g transform="translate(324.415418, 173.593162)"><path style="stroke:none" d="M 70.058594 0 L 46.210938 -37.453125 L 67.5 -70.328125 L 45.269531 -70.328125 L 35.300781 -52.410156 L 26.003906 -70.328125 L 2.558594 -70.328125 L 23.847656 -38.128906 L 0 0 L 22.902344 0 L 34.625 -21.828125 L 47.964844 0 Z M 70.058594 0 "/></g></g><g style="fill:#063472;fill-opacity:1;"><g transform="translate(389.487595, 173.593162)"><path style="stroke:none" d=""/></g></g><g style="fill:#063472;fill-opacity:1;"><g transform="translate(423.707614, 173.593162)"><path style="stroke:none" d="M 70.867188 0 C 69.117188 -2.558594 68.847656 -4.851562 68.847656 -10.914062 L 68.847656 -52.003906 C 68.847656 -68.980469 50.660156 -72.214844 38.53125 -72.214844 C 23.171875 -72.214844 8.890625 -65.882812 8.890625 -50.390625 L 29.640625 -50.390625 C 30.179688 -53.488281 31.796875 -58.609375 40.554688 -58.609375 C 48.097656 -58.609375 48.503906 -52.542969 48.503906 -50.121094 L 48.503906 -46.210938 C 33.007812 -43.25 25.597656 -41.765625 20.75 -39.746094 C 11.992188 -36.109375 5.929688 -28.292969 5.929688 -19.535156 C 5.929688 -9.429688 12.933594 1.886719 28.96875 1.886719 C 39.746094 1.886719 45 -2.695312 50.523438 -6.332031 L 50.523438 0 Z M 48.503906 -33.683594 L 48.503906 -30.582031 C 48.503906 -20.613281 42.304688 -13.339844 34.222656 -13.339844 C 28.292969 -13.339844 26.273438 -18.054688 26.273438 -20.480469 C 26.273438 -23.578125 28.023438 -26.945312 35.164062 -29.238281 Z M 48.503906 -33.683594 "/></g></g><g style="fill:#063472;fill-opacity:1;"><g transform="translate(497.132778, 173.593162)"><path style="stroke:none" d="M 45.941406 -55.914062 L 45.941406 -68.578125 L 32.199219 -68.578125 L 32.199219 -90.671875 L 11.722656 -90.671875 L 11.722656 -68.710938 L 1.480469 -68.710938 L 1.480469 -56.046875 L 11.722656 -56.046875 L 11.722656 -19.402344 C 11.722656 -2.964844 20.480469 0.539062 31.796875 0.539062 C 39.339844 0.539062 43.519531 -0.269531 44.863281 -0.539062 L 44.863281 -16.570312 C 44.863281 -16.570312 39.070312 -16.4375 37.589844 -16.4375 C 34.355469 -16.4375 32.199219 -17.515625 32.199219 -22.230469 L 32.199219 -55.914062 Z M 45.941406 -55.914062 "/></g></g><g style="fill:#063472;fill-opacity:1;"><g transform="translate(539.705762, 173.593162)"><path style="stroke:none" d="M 72.351562 0 L 72.351562 -48.097656 C 72.351562 -63.054688 64.535156 -72.214844 49.984375 -72.214844 C 45.941406 -72.214844 37.589844 -71.273438 29.910156 -62.785156 L 29.910156 -95.121094 L 9.160156 -95.121094 L 9.160156 0 L 29.910156 0 L 29.910156 -37.050781 C 29.910156 -48.097656 32.46875 -54.566406 41.09375 -54.566406 C 51.332031 -54.566406 51.734375 -45.269531 51.734375 -37.992188 L 51.734375 0 Z M 72.351562 0 "/></g></g><g style="fill:#063472;fill-opacity:1;"><g transform="translate(615.960159, 173.593162)"><path style="stroke:none" d="M 29.910156 0 L 29.910156 -95.121094 L 9.296875 -95.121094 L 9.296875 0 Z M 29.910156 0 "/></g></g><g style="fill:#063472;fill-opacity:1;"><g transform="translate(650.180179, 173.593162)"><path style="stroke:none" d="M 75.71875 -30.851562 L 75.71875 -31.796875 C 75.71875 -51.332031 66.824219 -72.484375 40.417969 -72.484375 C 12.933594 -72.484375 4.3125 -51.46875 4.3125 -33.816406 C 4.3125 -11.046875 18.457031 2.558594 39.878906 2.558594 C 54.429688 2.558594 66.960938 -4.445312 74.910156 -17.785156 L 59.28125 -25.867188 C 57.125 -20.074219 51.332031 -13.339844 41.496094 -13.339844 C 31.929688 -13.339844 25.464844 -20.613281 25.464844 -30.042969 L 25.464844 -30.851562 Z M 25.464844 -43.789062 C 26.40625 -49.445312 30.449219 -57.664062 40.285156 -57.664062 C 48.773438 -57.664062 54.027344 -51.601562 54.296875 -43.789062 Z M 25.464844 -43.789062 "/></g></g><g style="fill:#063472;fill-opacity:1;"><g transform="translate(723.605342, 173.593162)"><path style="stroke:none" d="M 45.941406 -55.914062 L 45.941406 -68.578125 L 32.199219 -68.578125 L 32.199219 -90.671875 L 11.722656 -90.671875 L 11.722656 -68.710938 L 1.480469 -68.710938 L 1.480469 -56.046875 L 11.722656 -56.046875 L 11.722656 -19.402344 C 11.722656 -2.964844 20.480469 0.539062 31.796875 0.539062 C 39.339844 0.539062 43.519531 -0.269531 44.863281 -0.539062 L 44.863281 -16.570312 C 44.863281 -16.570312 39.070312 -16.4375 37.589844 -16.4375 C 34.355469 -16.4375 32.199219 -17.515625 32.199219 -22.230469 L 32.199219 -55.914062 Z M 45.941406 -55.914062 "/></g></g><g style="fill:#063472;fill-opacity:1;"><g transform="translate(766.178327, 173.593162)"><path style="stroke:none" d="M 29.910156 -79.085938 L 29.910156 -95.121094 L 9.296875 -95.121094 L 9.296875 -79.085938 Z M 29.910156 0 L 29.910156 -70.328125 L 9.296875 -70.328125 L 9.296875 0 Z M 29.910156 0 "/></g></g><g style="fill:#063472;fill-opacity:1;"><g transform="translate(800.398346, 173.593162)"><path style="stroke:none" d="M 54.96875 -24.65625 C 53.488281 -20.210938 49.445312 -14.148438 41.363281 -14.148438 C 29.910156 -14.148438 25.734375 -26.40625 25.734375 -35.300781 C 25.734375 -43.789062 29.640625 -56.453125 40.6875 -56.453125 C 48.773438 -56.453125 52.542969 -50.523438 54.429688 -46.617188 L 69.789062 -55.375 C 59.953125 -71.003906 46.078125 -72.351562 39.746094 -72.351562 C 23.847656 -72.351562 4.445312 -62.785156 4.445312 -34.625 C 4.445312 -8.21875 22.902344 2.289062 39.339844 2.289062 C 50.121094 2.289062 62.648438 -2.695312 70.597656 -16.570312 Z M 54.96875 -24.65625 "/></g></g><g style="fill:#063472;fill-opacity:1;"><g transform="translate(867.895537, 173.593162)"><path style="stroke:none" d="M 65.75 -62.109375 C 57.261719 -68.578125 46.480469 -72.621094 34.492188 -72.621094 C 14.6875 -72.621094 4.714844 -61.03125 4.714844 -49.042969 C 4.714844 -38.261719 11.585938 -30.988281 28.292969 -28.160156 L 34.625 -27.082031 C 42.171875 -25.867188 45.808594 -24.789062 45.808594 -20.882812 C 45.808594 -16.4375 40.148438 -14.011719 33.277344 -14.011719 C 25.734375 -14.011719 17.917969 -18.324219 12.800781 -23.710938 L -0.269531 -11.855469 C 4.851562 -6.332031 16.300781 1.75 33.816406 1.75 C 48.503906 1.75 67.09375 -5.253906 67.09375 -22.769531 C 67.09375 -35.839844 56.992188 -42.035156 41.765625 -44.863281 L 36.78125 -45.808594 C 28.5625 -47.425781 25.328125 -48.503906 25.328125 -51.871094 C 25.328125 -55.777344 30.582031 -57.261719 35.03125 -57.261719 C 41.632812 -57.261719 48.367188 -54.027344 52.949219 -50.253906 Z M 65.75 -62.109375 "/></g></g><g style="fill:#1468a2;fill-opacity:1;"><g transform="translate(120.019266, 221.874424)"><path style="stroke:none" d="M 3.59375 -22.851562 L 3.59375 0 L 6.417969 0 L 6.417969 -12.503906 C 6.417969 -17.101562 7.953125 -20.695312 12.839844 -20.695312 C 13.507812 -20.695312 14.085938 -20.648438 14.660156 -20.550781 L 14.660156 -23.089844 C 13.84375 -23.1875 13.078125 -23.1875 12.695312 -23.1875 C 9.867188 -23.1875 7.617188 -21.894531 6.417969 -19.210938 L 6.417969 -22.851562 Z M 3.59375 -22.851562 "/></g></g><g style="fill:#1468a2;fill-opacity:1;"><g transform="translate(133.193566, 221.874424)"><path style="stroke:none" d="M 5.222656 -11.402344 L 22.949219 -11.402344 L 22.949219 -11.832031 C 22.949219 -17.773438 19.113281 -23.425781 12.648438 -23.425781 C 7.328125 -23.425781 2.109375 -19.449219 2.109375 -11.640625 C 2.109375 -7.664062 3.738281 0.574219 13.03125 0.574219 C 19.496094 0.574219 21.894531 -3.6875 22.949219 -6.035156 L 20.3125 -6.804688 C 18.109375 -2.441406 14.945312 -2.011719 12.886719 -2.011719 C 6.660156 -2.011719 5.222656 -7.328125 5.222656 -10.730469 Z M 5.269531 -13.75 C 5.605469 -16.957031 7.761719 -20.886719 12.597656 -20.886719 C 15.089844 -20.886719 19.019531 -19.640625 19.691406 -13.75 Z M 5.269531 -13.75 "/></g></g><g style="fill:#1468a2;fill-opacity:1;"><g transform="translate(156.332427, 221.874424)"><path style="stroke:none" d="M 18.875 -5.75 C 17.535156 -3.257812 15.570312 -1.917969 12.695312 -1.917969 C 7.472656 -1.917969 5.175781 -6.277344 5.175781 -11.402344 C 5.175781 -16.382812 7.664062 -20.886719 12.933594 -20.886719 C 15.617188 -20.886719 18.109375 -19.59375 19.113281 -17.054688 L 21.75 -17.675781 C 20.550781 -20.839844 17.964844 -23.425781 13.078125 -23.425781 C 6.660156 -23.425781 2.109375 -18.730469 2.109375 -11.257812 C 2.109375 -4.214844 6.132812 0.574219 12.597656 0.574219 C 17.773438 0.574219 20.359375 -2.15625 21.75 -5.078125 Z M 18.875 -5.75 "/></g></g><g style="fill:#1468a2;fill-opacity:1;"><g transform="translate(177.459208, 221.874424)"><path style="stroke:none" d="M 3.59375 -22.851562 L 3.59375 0 L 6.417969 0 L 6.417969 -12.503906 C 6.417969 -17.101562 7.953125 -20.695312 12.839844 -20.695312 C 13.507812 -20.695312 14.085938 -20.648438 14.660156 -20.550781 L 14.660156 -23.089844 C 13.84375 -23.1875 13.078125 -23.1875 12.695312 -23.1875 C 9.867188 -23.1875 7.617188 -21.894531 6.417969 -19.210938 L 6.417969 -22.851562 Z M 3.59375 -22.851562 "/></g></g><g style="fill:#1468a2;fill-opacity:1;"><g transform="translate(190.633508, 221.874424)"><path style="stroke:none" d="M 21.367188 0 L 21.367188 -22.851562 L 18.539062 -22.851562 L 18.539062 -11.304688 C 18.539062 -8.957031 18.394531 -6.5625 17.007812 -4.648438 C 15.1875 -2.15625 12.742188 -2.109375 11.59375 -2.109375 C 8.238281 -2.109375 7.234375 -4.070312 6.851562 -5.460938 C 6.515625 -6.753906 6.46875 -8.238281 6.46875 -11.019531 L 6.46875 -22.851562 L 3.59375 -22.851562 L 3.59375 -11.640625 C 3.59375 -8.046875 3.738281 -5.890625 4.214844 -4.3125 C 5.222656 -1.148438 8.097656 0.527344 11.257812 0.527344 C 15.136719 0.527344 17.292969 -1.292969 18.539062 -4.121094 L 18.539062 0 Z M 21.367188 0 "/></g></g><g style="fill:#1468a2;fill-opacity:1;"><g transform="translate(213.772369, 221.874424)"><path style="stroke:none" d="M 6.371094 -28.21875 L 6.371094 -32.578125 L 3.59375 -32.578125 L 3.59375 -28.21875 Z M 6.371094 0 L 6.371094 -22.851562 L 3.59375 -22.851562 L 3.59375 0 Z M 6.371094 0 "/></g></g><g style="fill:#1468a2;fill-opacity:1;"><g transform="translate(221.916485, 221.874424)"><path style="stroke:none" d="M 8.238281 -20.457031 L 13.269531 -20.457031 L 13.269531 -22.851562 L 8.238281 -22.851562 L 8.238281 -32.578125 L 5.507812 -32.578125 L 5.507812 -22.851562 L 0.71875 -22.851562 L 0.71875 -20.457031 L 5.507812 -20.457031 L 5.507812 -5.367188 C 5.507812 -4.121094 5.558594 -2.441406 5.84375 -1.628906 C 6.5625 0.382812 8.671875 0.429688 9.484375 0.429688 C 11.449219 0.429688 12.648438 -0.144531 13.269531 -0.621094 L 13.269531 -3.496094 C 12.40625 -2.875 11.257812 -2.058594 10.109375 -2.058594 C 8.429688 -2.058594 8.238281 -3.546875 8.238281 -4.839844 Z M 8.238281 -20.457031 "/></g></g><g style="fill:#1468a2;fill-opacity:1;"><g transform="translate(234.08475, 221.874424)"><path style="stroke:none" d="M 6.371094 -28.21875 L 6.371094 -32.578125 L 3.59375 -32.578125 L 3.59375 -28.21875 Z M 6.371094 0 L 6.371094 -22.851562 L 3.59375 -22.851562 L 3.59375 0 Z M 6.371094 0 "/></g></g><g style="fill:#1468a2;fill-opacity:1;"><g transform="translate(242.228867, 221.874424)"><path style="stroke:none" d="M 21.367188 0 L 21.367188 -12.984375 C 21.367188 -16.144531 21.320312 -17.773438 20.550781 -19.402344 C 19.832031 -20.984375 17.871094 -23.332031 13.605469 -23.332031 C 8.046875 -23.332031 6.609375 -19.402344 6.417969 -18.78125 L 6.417969 -22.851562 L 3.59375 -22.851562 L 3.59375 0 L 6.417969 0 L 6.417969 -13.078125 C 6.417969 -17.246094 8.527344 -20.792969 13.269531 -20.792969 C 14.804688 -20.792969 17.152344 -20.3125 18.011719 -18.109375 C 18.539062 -16.765625 18.539062 -14.945312 18.539062 -11.878906 L 18.539062 0 Z M 21.367188 0 "/></g></g><g style="fill:#1468a2;fill-opacity:1;"><g transform="translate(265.367728, 221.874424)"><path style="stroke:none" d="M 19.59375 -22.851562 L 19.59375 -18.636719 C 18.828125 -21.460938 15.570312 -23.332031 12.074219 -23.332031 C 6.945312 -23.332031 2.109375 -19.976562 2.109375 -11.546875 C 2.109375 -4.214844 6.035156 0.480469 12.023438 0.480469 C 17.675781 0.480469 19.402344 -3.304688 19.59375 -4.40625 L 19.59375 0.191406 C 19.59375 6.179688 18.253906 9.246094 12.550781 9.246094 C 6.371094 9.246094 5.652344 5.558594 5.269531 3.019531 L 2.300781 3.546875 C 2.441406 7.28125 4.789062 11.6875 12.167969 11.6875 C 21.078125 11.6875 22.324219 6.226562 22.324219 1.4375 L 22.324219 -22.851562 Z M 4.980469 -11.640625 C 4.980469 -17.773438 8.097656 -20.886719 12.40625 -20.886719 C 18.492188 -20.886719 19.496094 -15.808594 19.496094 -11.785156 C 19.496094 -5.941406 17.773438 -2.058594 12.265625 -2.058594 C 7.1875 -2.058594 4.980469 -6.179688 4.980469 -11.640625 Z M 4.980469 -11.640625 "/></g></g><g style="fill:#1468a2;fill-opacity:1;"><g transform="translate(289.512623, 221.874424)"><path style="stroke:none" d=""/></g></g><g style="fill:#1468a2;fill-opacity:1;"><g transform="translate(300.052068, 221.874424)"><path style="stroke:none" d="M 6.371094 -28.21875 L 6.371094 -32.578125 L 3.59375 -32.578125 L 3.59375 -28.21875 Z M 6.371094 0 L 6.371094 -22.851562 L 3.59375 -22.851562 L 3.59375 0 Z M 6.371094 0 "/></g></g><g style="fill:#1468a2;fill-opacity:1;"><g transform="translate(308.196184, 221.874424)"><path style="stroke:none" d="M 21.367188 0 L 21.367188 -12.984375 C 21.367188 -16.144531 21.320312 -17.773438 20.550781 -19.402344 C 19.832031 -20.984375 17.871094 -23.332031 13.605469 -23.332031 C 8.046875 -23.332031 6.609375 -19.402344 6.417969 -18.78125 L 6.417969 -22.851562 L 3.59375 -22.851562 L 3.59375 0 L 6.417969 0 L 6.417969 -13.078125 C 6.417969 -17.246094 8.527344 -20.792969 13.269531 -20.792969 C 14.804688 -20.792969 17.152344 -20.3125 18.011719 -18.109375 C 18.539062 -16.765625 18.539062 -14.945312 18.539062 -11.878906 L 18.539062 0 Z M 21.367188 0 "/></g></g><g style="fill:#1468a2;fill-opacity:1;"><g transform="translate(331.335045, 221.874424)"><path style="stroke:none" d="M 8.238281 -20.457031 L 13.269531 -20.457031 L 13.269531 -22.851562 L 8.238281 -22.851562 L 8.238281 -32.578125 L 5.507812 -32.578125 L 5.507812 -22.851562 L 0.71875 -22.851562 L 0.71875 -20.457031 L 5.507812 -20.457031 L 5.507812 -5.367188 C 5.507812 -4.121094 5.558594 -2.441406 5.84375 -1.628906 C 6.5625 0.382812 8.671875 0.429688 9.484375 0.429688 C 11.449219 0.429688 12.648438 -0.144531 13.269531 -0.621094 L 13.269531 -3.496094 C 12.40625 -2.875 11.257812 -2.058594 10.109375 -2.058594 C 8.429688 -2.058594 8.238281 -3.546875 8.238281 -4.839844 Z M 8.238281 -20.457031 "/></g></g><g style="fill:#1468a2;fill-opacity:1;"><g transform="translate(343.50331, 221.874424)"><path style="stroke:none" d="M 5.222656 -11.402344 L 22.949219 -11.402344 L 22.949219 -11.832031 C 22.949219 -17.773438 19.113281 -23.425781 12.648438 -23.425781 C 7.328125 -23.425781 2.109375 -19.449219 2.109375 -11.640625 C 2.109375 -7.664062 3.738281 0.574219 13.03125 0.574219 C 19.496094 0.574219 21.894531 -3.6875 22.949219 -6.035156 L 20.3125 -6.804688 C 18.109375 -2.441406 14.945312 -2.011719 12.886719 -2.011719 C 6.660156 -2.011719 5.222656 -7.328125 5.222656 -10.730469 Z M 5.269531 -13.75 C 5.605469 -16.957031 7.761719 -20.886719 12.597656 -20.886719 C 15.089844 -20.886719 19.019531 -19.640625 19.691406 -13.75 Z M 5.269531 -13.75 "/></g></g><g style="fill:#1468a2;fill-opacity:1;"><g transform="translate(366.642171, 221.874424)"><path style="stroke:none" d="M 6.417969 0 L 6.417969 -33.820312 L 3.546875 -33.820312 L 3.546875 0 Z M 6.417969 0 "/></g></g><g style="fill:#1468a2;fill-opacity:1;"><g transform="translate(374.786299, 221.874424)"><path style="stroke:none" d="M 6.417969 0 L 6.417969 -33.820312 L 3.546875 -33.820312 L 3.546875 0 Z M 6.417969 0 "/></g></g><g style="fill:#1468a2;fill-opacity:1;"><g transform="translate(382.930404, 221.874424)"><path style="stroke:none" d="M 6.371094 -28.21875 L 6.371094 -32.578125 L 3.59375 -32.578125 L 3.59375 -28.21875 Z M 6.371094 0 L 6.371094 -22.851562 L 3.59375 -22.851562 L 3.59375 0 Z M 6.371094 0 "/></g></g><g style="fill:#1468a2;fill-opacity:1;"><g transform="translate(391.074508, 221.874424)"><path style="stroke:none" d="M 19.59375 -22.851562 L 19.59375 -18.636719 C 18.828125 -21.460938 15.570312 -23.332031 12.074219 -23.332031 C 6.945312 -23.332031 2.109375 -19.976562 2.109375 -11.546875 C 2.109375 -4.214844 6.035156 0.480469 12.023438 0.480469 C 17.675781 0.480469 19.402344 -3.304688 19.59375 -4.40625 L 19.59375 0.191406 C 19.59375 6.179688 18.253906 9.246094 12.550781 9.246094 C 6.371094 9.246094 5.652344 5.558594 5.269531 3.019531 L 2.300781 3.546875 C 2.441406 7.28125 4.789062 11.6875 12.167969 11.6875 C 21.078125 11.6875 22.324219 6.226562 22.324219 1.4375 L 22.324219 -22.851562 Z M 4.980469 -11.640625 C 4.980469 -17.773438 8.097656 -20.886719 12.40625 -20.886719 C 18.492188 -20.886719 19.496094 -15.808594 19.496094 -11.785156 C 19.496094 -5.941406 17.773438 -2.058594 12.265625 -2.058594 C 7.1875 -2.058594 4.980469 -6.179688 4.980469 -11.640625 Z M 4.980469 -11.640625 "/></g></g><g style="fill:#1468a2;fill-opacity:1;"><g transform="translate(415.219426, 221.874424)"><path style="stroke:none" d="M 5.222656 -11.402344 L 22.949219 -11.402344 L 22.949219 -11.832031 C 22.949219 -17.773438 19.113281 -23.425781 12.648438 -23.425781 C 7.328125 -23.425781 2.109375 -19.449219 2.109375 -11.640625 C 2.109375 -7.664062 3.738281 0.574219 13.03125 0.574219 C 19.496094 0.574219 21.894531 -3.6875 22.949219 -6.035156 L 20.3125 -6.804688 C 18.109375 -2.441406 14.945312 -2.011719 12.886719 -2.011719 C 6.660156 -2.011719 5.222656 -7.328125 5.222656 -10.730469 Z M 5.269531 -13.75 C 5.605469 -16.957031 7.761719 -20.886719 12.597656 -20.886719 C 15.089844 -20.886719 19.019531 -19.640625 19.691406 -13.75 Z M 5.269531 -13.75 "/></g></g><g style="fill:#1468a2;fill-opacity:1;"><g transform="translate(438.358264, 221.874424)"><path style="stroke:none" d="M 21.367188 0 L 21.367188 -12.984375 C 21.367188 -16.144531 21.320312 -17.773438 20.550781 -19.402344 C 19.832031 -20.984375 17.871094 -23.332031 13.605469 -23.332031 C 8.046875 -23.332031 6.609375 -19.402344 6.417969 -18.78125 L 6.417969 -22.851562 L 3.59375 -22.851562 L 3.59375 0 L 6.417969 0 L 6.417969 -13.078125 C 6.417969 -17.246094 8.527344 -20.792969 13.269531 -20.792969 C 14.804688 -20.792969 17.152344 -20.3125 18.011719 -18.109375 C 18.539062 -16.765625 18.539062 -14.945312 18.539062 -11.878906 L 18.539062 0 Z M 21.367188 0 "/></g></g><g style="fill:#1468a2;fill-opacity:1;"><g transform="translate(461.497148, 221.874424)"><path style="stroke:none" d="M 18.875 -5.75 C 17.535156 -3.257812 15.570312 -1.917969 12.695312 -1.917969 C 7.472656 -1.917969 5.175781 -6.277344 5.175781 -11.402344 C 5.175781 -16.382812 7.664062 -20.886719 12.933594 -20.886719 C 15.617188 -20.886719 18.109375 -19.59375 19.113281 -17.054688 L 21.75 -17.675781 C 20.550781 -20.839844 17.964844 -23.425781 13.078125 -23.425781 C 6.660156 -23.425781 2.109375 -18.730469 2.109375 -11.257812 C 2.109375 -4.214844 6.132812 0.574219 12.597656 0.574219 C 17.773438 0.574219 20.359375 -2.15625 21.75 -5.078125 Z M 18.875 -5.75 "/></g></g><g style="fill:#1468a2;fill-opacity:1;"><g transform="translate(482.623917, 221.874424)"><path style="stroke:none" d="M 5.222656 -11.402344 L 22.949219 -11.402344 L 22.949219 -11.832031 C 22.949219 -17.773438 19.113281 -23.425781 12.648438 -23.425781 C 7.328125 -23.425781 2.109375 -19.449219 2.109375 -11.640625 C 2.109375 -7.664062 3.738281 0.574219 13.03125 0.574219 C 19.496094 0.574219 21.894531 -3.6875 22.949219 -6.035156 L 20.3125 -6.804688 C 18.109375 -2.441406 14.945312 -2.011719 12.886719 -2.011719 C 6.660156 -2.011719 5.222656 -7.328125 5.222656 -10.730469 Z M 5.269531 -13.75 C 5.605469 -16.957031 7.761719 -20.886719 12.597656 -20.886719 C 15.089844 -20.886719 19.019531 -19.640625 19.691406 -13.75 Z M 5.269531 -13.75 "/></g></g><g style="fill:#1468a2;fill-opacity:1;"><g transform="translate(505.762755, 221.874424)"><path style="stroke:none" d=""/></g></g><g style="fill:#1468a2;fill-opacity:1;"><g transform="translate(516.302222, 221.874424)"><path style="stroke:none" d="M 14.132812 -20.457031 L 14.132812 -22.851562 L 8.957031 -22.851562 L 8.957031 -28.839844 C 8.957031 -30.46875 9.339844 -32 11.402344 -32 C 12.742188 -32 13.605469 -31.570312 14.132812 -31.378906 L 14.132812 -34.15625 C 13.078125 -34.347656 12.3125 -34.492188 11.210938 -34.492188 C 6.371094 -34.492188 6.132812 -31.234375 6.132812 -29.175781 L 6.132812 -22.851562 L 1.101562 -22.851562 L 1.101562 -20.457031 L 6.132812 -20.457031 L 6.132812 0 L 8.957031 0 L 8.957031 -20.457031 Z M 14.132812 -20.457031 "/></g></g><g style="fill:#1468a2;fill-opacity:1;"><g transform="translate(529.476522, 221.874424)"><path style="stroke:none" d="M 22.851562 -11.546875 C 22.753906 -17.34375 19.691406 -23.425781 12.550781 -23.425781 C 5.988281 -23.425781 2.109375 -18.253906 2.109375 -11.164062 C 2.109375 -3.785156 6.46875 0.574219 12.359375 0.574219 C 17.34375 0.574219 22.851562 -3.019531 22.851562 -11.546875 Z M 19.832031 -11.546875 C 19.832031 -4.214844 15.953125 -1.917969 12.40625 -1.917969 C 8.816406 -1.917969 5.125 -4.121094 5.125 -11.164062 C 5.125 -18.011719 8.382812 -21.03125 12.503906 -21.03125 C 16.097656 -21.03125 19.832031 -18.730469 19.832031 -11.546875 Z M 19.832031 -11.546875 "/></g></g><g style="fill:#1468a2;fill-opacity:1;"><g transform="translate(552.61536, 221.874424)"><path style="stroke:none" d="M 3.59375 -22.851562 L 3.59375 0 L 6.417969 0 L 6.417969 -12.503906 C 6.417969 -17.101562 7.953125 -20.695312 12.839844 -20.695312 C 13.507812 -20.695312 14.085938 -20.648438 14.660156 -20.550781 L 14.660156 -23.089844 C 13.84375 -23.1875 13.078125 -23.1875 12.695312 -23.1875 C 9.867188 -23.1875 7.617188 -21.894531 6.417969 -19.210938 L 6.417969 -22.851562 Z M 3.59375 -22.851562 "/></g></g><g style="fill:#1468a2;fill-opacity:1;"><g transform="translate(565.78966, 221.874424)"><path style="stroke:none" d=""/></g></g><g style="fill:#1468a2;fill-opacity:1;"><g transform="translate(576.329128, 221.874424)"><path style="stroke:none" d="M 1.628906 -5.558594 C 4.070312 0.289062 8.910156 0.574219 10.828125 0.574219 C 17.246094 0.574219 19.355469 -3.640625 19.355469 -6.277344 C 19.355469 -9.820312 17.054688 -12.121094 13.03125 -12.933594 L 10.636719 -13.414062 C 8.671875 -13.796875 5.84375 -14.417969 5.84375 -17.101562 C 5.84375 -18.492188 6.46875 -20.933594 11.113281 -20.933594 C 13.414062 -20.933594 16.144531 -20.167969 16.671875 -17.535156 L 19.355469 -18.253906 C 19.164062 -19.019531 18.636719 -20.695312 16.863281 -21.941406 C 14.753906 -23.425781 11.929688 -23.425781 11.257812 -23.425781 C 9.246094 -23.425781 6.609375 -22.949219 5.03125 -21.511719 C 3.210938 -19.882812 3.066406 -17.675781 3.066406 -16.863281 C 3.066406 -13.507812 5.460938 -11.929688 9.007812 -11.164062 L 11.6875 -10.585938 C 15.472656 -9.773438 16.625 -8.429688 16.625 -6.46875 C 16.625 -4.457031 15.1875 -2.011719 10.777344 -2.011719 C 6.515625 -2.011719 4.789062 -4.933594 4.40625 -6.515625 Z M 1.628906 -5.558594 "/></g></g><g style="fill:#1468a2;fill-opacity:1;"><g transform="translate(596.449863, 221.874424)"><path style="stroke:none" d="M 8.238281 -20.457031 L 13.269531 -20.457031 L 13.269531 -22.851562 L 8.238281 -22.851562 L 8.238281 -32.578125 L 5.507812 -32.578125 L 5.507812 -22.851562 L 0.71875 -22.851562 L 0.71875 -20.457031 L 5.507812 -20.457031 L 5.507812 -5.367188 C 5.507812 -4.121094 5.558594 -2.441406 5.84375 -1.628906 C 6.5625 0.382812 8.671875 0.429688 9.484375 0.429688 C 11.449219 0.429688 12.648438 -0.144531 13.269531 -0.621094 L 13.269531 -3.496094 C 12.40625 -2.875 11.257812 -2.058594 10.109375 -2.058594 C 8.429688 -2.058594 8.238281 -3.546875 8.238281 -4.839844 Z M 8.238281 -20.457031 "/></g></g><g style="fill:#1468a2;fill-opacity:1;"><g transform="translate(608.618128, 221.874424)"><path style="stroke:none" d="M 21.367188 0 L 21.367188 -22.851562 L 18.539062 -22.851562 L 18.539062 -11.304688 C 18.539062 -8.957031 18.394531 -6.5625 17.007812 -4.648438 C 15.1875 -2.15625 12.742188 -2.109375 11.59375 -2.109375 C 8.238281 -2.109375 7.234375 -4.070312 6.851562 -5.460938 C 6.515625 -6.753906 6.46875 -8.238281 6.46875 -11.019531 L 6.46875 -22.851562 L 3.59375 -22.851562 L 3.59375 -11.640625 C 3.59375 -8.046875 3.738281 -5.890625 4.214844 -4.3125 C 5.222656 -1.148438 8.097656 0.527344 11.257812 0.527344 C 15.136719 0.527344 17.292969 -1.292969 18.539062 -4.121094 L 18.539062 0 Z M 21.367188 0 "/></g></g><g style="fill:#1468a2;fill-opacity:1;"><g transform="translate(631.757012, 221.874424)"><path style="stroke:none" d="M 21.367188 0 L 21.367188 -33.820312 L 18.585938 -33.820312 L 18.585938 -19.210938 C 17.726562 -21.796875 14.945312 -23.332031 11.976562 -23.332031 C 5.941406 -23.332031 2.109375 -18.253906 2.109375 -11.449219 C 2.109375 -4.648438 5.84375 0.527344 11.546875 0.527344 C 14.613281 0.527344 17.535156 -1.101562 18.585938 -4.121094 L 18.585938 0 Z M 5.175781 -11.449219 C 5.175781 -17.101562 7.808594 -20.742188 12.121094 -20.742188 C 14.371094 -20.742188 18.636719 -19.832031 18.636719 -12.265625 L 18.636719 -11.019531 C 18.636719 -4.742188 15.664062 -2.15625 11.976562 -2.15625 C 8.429688 -2.15625 5.175781 -4.695312 5.175781 -11.449219 Z M 5.175781 -11.449219 "/></g></g><g style="fill:#1468a2;fill-opacity:1;"><g transform="translate(654.895849, 221.874424)"><path style="stroke:none" d="M 5.222656 -11.402344 L 22.949219 -11.402344 L 22.949219 -11.832031 C 22.949219 -17.773438 19.113281 -23.425781 12.648438 -23.425781 C 7.328125 -23.425781 2.109375 -19.449219 2.109375 -11.640625 C 2.109375 -7.664062 3.738281 0.574219 13.03125 0.574219 C 19.496094 0.574219 21.894531 -3.6875 22.949219 -6.035156 L 20.3125 -6.804688 C 18.109375 -2.441406 14.945312 -2.011719 12.886719 -2.011719 C 6.660156 -2.011719 5.222656 -7.328125 5.222656 -10.730469 Z M 5.269531 -13.75 C 5.605469 -16.957031 7.761719 -20.886719 12.597656 -20.886719 C 15.089844 -20.886719 19.019531 -19.640625 19.691406 -13.75 Z M 5.269531 -13.75 "/></g></g><g style="fill:#1468a2;fill-opacity:1;"><g transform="translate(678.034733, 221.874424)"><path style="stroke:none" d="M 21.367188 0 L 21.367188 -12.984375 C 21.367188 -16.144531 21.320312 -17.773438 20.550781 -19.402344 C 19.832031 -20.984375 17.871094 -23.332031 13.605469 -23.332031 C 8.046875 -23.332031 6.609375 -19.402344 6.417969 -18.78125 L 6.417969 -22.851562 L 3.59375 -22.851562 L 3.59375 0 L 6.417969 0 L 6.417969 -13.078125 C 6.417969 -17.246094 8.527344 -20.792969 13.269531 -20.792969 C 14.804688 -20.792969 17.152344 -20.3125 18.011719 -18.109375 C 18.539062 -16.765625 18.539062 -14.945312 18.539062 -11.878906 L 18.539062 0 Z M 21.367188 0 "/></g></g><g style="fill:#1468a2;fill-opacity:1;"><g transform="translate(701.173571, 221.874424)"><path style="stroke:none" d="M 8.238281 -20.457031 L 13.269531 -20.457031 L 13.269531 -22.851562 L 8.238281 -22.851562 L 8.238281 -32.578125 L 5.507812 -32.578125 L 5.507812 -22.851562 L 0.71875 -22.851562 L 0.71875 -20.457031 L 5.507812 -20.457031 L 5.507812 -5.367188 C 5.507812 -4.121094 5.558594 -2.441406 5.84375 -1.628906 C 6.5625 0.382812 8.671875 0.429688 9.484375 0.429688 C 11.449219 0.429688 12.648438 -0.144531 13.269531 -0.621094 L 13.269531 -3.496094 C 12.40625 -2.875 11.257812 -2.058594 10.109375 -2.058594 C 8.429688 -2.058594 8.238281 -3.546875 8.238281 -4.839844 Z M 8.238281 -20.457031 "/></g></g><g style="fill:#1468a2;fill-opacity:1;"><g transform="translate(713.341836, 221.874424)"><path style="stroke:none" d="M 14.515625 -12.648438 L 14.515625 -15.523438 L 1.820312 -15.523438 L 1.820312 -12.648438 Z M 14.515625 -12.648438 "/></g></g><g style="fill:#1468a2;fill-opacity:1;"><g transform="translate(727.857516, 221.874424)"><path style="stroke:none" d="M 23.570312 0 L 23.570312 -2.25 L 23.089844 -2.25 C 20.265625 -2.25 20.167969 -3.449219 20.167969 -6.515625 L 20.167969 -16.527344 C 20.167969 -22.230469 15.761719 -23.425781 11.785156 -23.425781 C 6.515625 -23.425781 3.402344 -20.601562 2.828125 -15.953125 L 5.941406 -15.425781 C 5.941406 -19.113281 7.425781 -20.933594 12.121094 -20.933594 C 16.335938 -20.933594 17.4375 -18.492188 17.4375 -16.289062 L 17.4375 -14.515625 L 13.605469 -13.652344 C 6.035156 -11.929688 2.15625 -10.300781 2.15625 -5.75 C 2.15625 -2.492188 4.503906 0.480469 9.339844 0.480469 C 14.324219 0.480469 16.910156 -2.441406 17.4375 -4.167969 C 17.4375 -0.957031 19.210938 0 22.996094 0 Z M 17.4375 -10.347656 C 17.4375 -8.238281 17.246094 -7.28125 16.816406 -6.324219 C 15.664062 -3.6875 12.265625 -2.011719 9.484375 -2.011719 C 6.132812 -2.011719 4.886719 -4.214844 4.886719 -5.796875 C 4.886719 -9.148438 8.238281 -9.628906 16 -11.6875 L 17.4375 -12.074219 Z M 17.4375 -10.347656 "/></g></g><g style="fill:#1468a2;fill-opacity:1;"><g transform="translate(749.990365, 221.874424)"><path style="stroke:none" d="M 8.238281 -20.457031 L 13.269531 -20.457031 L 13.269531 -22.851562 L 8.238281 -22.851562 L 8.238281 -32.578125 L 5.507812 -32.578125 L 5.507812 -22.851562 L 0.71875 -22.851562 L 0.71875 -20.457031 L 5.507812 -20.457031 L 5.507812 -5.367188 C 5.507812 -4.121094 5.558594 -2.441406 5.84375 -1.628906 C 6.5625 0.382812 8.671875 0.429688 9.484375 0.429688 C 11.449219 0.429688 12.648438 -0.144531 13.269531 -0.621094 L 13.269531 -3.496094 C 12.40625 -2.875 11.257812 -2.058594 10.109375 -2.058594 C 8.429688 -2.058594 8.238281 -3.546875 8.238281 -4.839844 Z M 8.238281 -20.457031 "/></g></g><g style="fill:#1468a2;fill-opacity:1;"><g transform="translate(762.15863, 221.874424)"><path style="stroke:none" d="M 21.320312 0 L 21.320312 -12.886719 C 21.320312 -16.910156 21.125 -18.78125 19.832031 -20.503906 C 17.871094 -23.140625 14.5625 -23.332031 13.558594 -23.332031 C 9.101562 -23.332031 7.1875 -20.695312 6.46875 -19.210938 L 6.46875 -33.820312 L 3.59375 -33.820312 L 3.59375 0 L 6.46875 0 L 6.46875 -9.867188 C 6.46875 -13.84375 6.515625 -15.761719 7.425781 -17.535156 C 8.097656 -18.78125 9.726562 -20.742188 13.175781 -20.742188 C 17.820312 -20.742188 18.539062 -17.34375 18.539062 -14.46875 L 18.539062 0 Z M 21.320312 0 "/></g></g><g style="fill:#1468a2;fill-opacity:1;"><g transform="translate(785.297468, 221.874424)"><path style="stroke:none" d="M 6.417969 0 L 6.417969 -33.820312 L 3.546875 -33.820312 L 3.546875 0 Z M 6.417969 0 "/></g></g><g style="fill:#1468a2;fill-opacity:1;"><g transform="translate(793.441596, 221.874424)"><path style="stroke:none" d="M 5.222656 -11.402344 L 22.949219 -11.402344 L 22.949219 -11.832031 C 22.949219 -17.773438 19.113281 -23.425781 12.648438 -23.425781 C 7.328125 -23.425781 2.109375 -19.449219 2.109375 -11.640625 C 2.109375 -7.664062 3.738281 0.574219 13.03125 0.574219 C 19.496094 0.574219 21.894531 -3.6875 22.949219 -6.035156 L 20.3125 -6.804688 C 18.109375 -2.441406 14.945312 -2.011719 12.886719 -2.011719 C 6.660156 -2.011719 5.222656 -7.328125 5.222656 -10.730469 Z M 5.269531 -13.75 C 5.605469 -16.957031 7.761719 -20.886719 12.597656 -20.886719 C 15.089844 -20.886719 19.019531 -19.640625 19.691406 -13.75 Z M 5.269531 -13.75 "/></g></g><g style="fill:#1468a2;fill-opacity:1;"><g transform="translate(816.580434, 221.874424)"><path style="stroke:none" d="M 8.238281 -20.457031 L 13.269531 -20.457031 L 13.269531 -22.851562 L 8.238281 -22.851562 L 8.238281 -32.578125 L 5.507812 -32.578125 L 5.507812 -22.851562 L 0.71875 -22.851562 L 0.71875 -20.457031 L 5.507812 -20.457031 L 5.507812 -5.367188 C 5.507812 -4.121094 5.558594 -2.441406 5.84375 -1.628906 C 6.5625 0.382812 8.671875 0.429688 9.484375 0.429688 C 11.449219 0.429688 12.648438 -0.144531 13.269531 -0.621094 L 13.269531 -3.496094 C 12.40625 -2.875 11.257812 -2.058594 10.109375 -2.058594 C 8.429688 -2.058594 8.238281 -3.546875 8.238281 -4.839844 Z M 8.238281 -20.457031 "/></g></g><g style="fill:#1468a2;fill-opacity:1;"><g transform="translate(828.748699, 221.874424)"><path style="stroke:none" d="M 5.222656 -11.402344 L 22.949219 -11.402344 L 22.949219 -11.832031 C 22.949219 -17.773438 19.113281 -23.425781 12.648438 -23.425781 C 7.328125 -23.425781 2.109375 -19.449219 2.109375 -11.640625 C 2.109375 -7.664062 3.738281 0.574219 13.03125 0.574219 C 19.496094 0.574219 21.894531 -3.6875 22.949219 -6.035156 L 20.3125 -6.804688 C 18.109375 -2.441406 14.945312 -2.011719 12.886719 -2.011719 C 6.660156 -2.011719 5.222656 -7.328125 5.222656 -10.730469 Z M 5.269531 -13.75 C 5.605469 -16.957031 7.761719 -20.886719 12.597656 -20.886719 C 15.089844 -20.886719 19.019531 -19.640625 19.691406 -13.75 Z M 5.269531 -13.75 "/></g></g><g style="fill:#1468a2;fill-opacity:1;"><g transform="translate(851.887582, 221.874424)"><path style="stroke:none" d="M 1.628906 -5.558594 C 4.070312 0.289062 8.910156 0.574219 10.828125 0.574219 C 17.246094 0.574219 19.355469 -3.640625 19.355469 -6.277344 C 19.355469 -9.820312 17.054688 -12.121094 13.03125 -12.933594 L 10.636719 -13.414062 C 8.671875 -13.796875 5.84375 -14.417969 5.84375 -17.101562 C 5.84375 -18.492188 6.46875 -20.933594 11.113281 -20.933594 C 13.414062 -20.933594 16.144531 -20.167969 16.671875 -17.535156 L 19.355469 -18.253906 C 19.164062 -19.019531 18.636719 -20.695312 16.863281 -21.941406 C 14.753906 -23.425781 11.929688 -23.425781 11.257812 -23.425781 C 9.246094 -23.425781 6.609375 -22.949219 5.03125 -21.511719 C 3.210938 -19.882812 3.066406 -17.675781 3.066406 -16.863281 C 3.066406 -13.507812 5.460938 -11.929688 9.007812 -11.164062 L 11.6875 -10.585938 C 15.472656 -9.773438 16.625 -8.429688 16.625 -6.46875 C 16.625 -4.457031 15.1875 -2.011719 10.777344 -2.011719 C 6.515625 -2.011719 4.789062 -4.933594 4.40625 -6.515625 Z M 1.628906 -5.558594 "/></g></g></g></svg>