<svg xmlns="http://www.w3.org/2000/svg" xmlns:xlink="http://www.w3.org/1999/xlink" width="1323" zoomAndPan="magnify" viewBox="0 0 992.25 255.749984" height="341" preserveAspectRatio="xMidYMid meet" version="1.2"><defs><clipPath id="792c4ea9b0"><path d="M 0.109375 0 L 991.390625 0 L 991.390625 255.5 L 0.109375 255.5 Z M 0.109375 0 "/></clipPath></defs><g id="643f7745a1"><g clip-rule="nonzero" clip-path="url(#792c4ea9b0)"><path style=" stroke:none;fill-rule:nonzero;fill:#ffffff;fill-opacity:1;" d="M 0.109375 0 L 991.390625 0 L 991.390625 255.5 L 0.109375 255.5 Z M 0.109375 0 "/><path style=" stroke:none;fill-rule:nonzero;fill:#ffffff;fill-opacity:1;" d="M 0.109375 0 L 991.390625 0 L 991.390625 255.5 L 0.109375 255.5 Z M 0.109375 0 "/></g><g style="fill:#063472;fill-opacity:1;"><g transform="translate(57.414075, 160.717869)"><path style="stroke:none" d="M 29.71875 -78.582031 L 29.71875 -94.511719 L 9.238281 -94.511719 L 9.238281 -78.582031 Z M 29.71875 0 L 29.71875 -69.882812 L 9.238281 -69.882812 L 9.238281 0 Z M 29.71875 0 "/></g></g><g style="fill:#063472;fill-opacity:1;"><g transform="translate(91.414477, 160.717869)"><path style="stroke:none" d="M 71.621094 0 L 71.621094 -50.203125 C 71.621094 -64.390625 64.125 -71.621094 49.933594 -71.621094 C 40.160156 -71.621094 33.601562 -67.738281 30.253906 -63.722656 L 30.253906 -69.882812 L 9.371094 -69.882812 L 9.371094 0 L 29.988281 0 L 29.988281 -39.089844 C 29.988281 -48.460938 31.324219 -55.15625 40.832031 -55.15625 C 49.132812 -55.15625 51.003906 -49.667969 51.003906 -43.105469 L 51.003906 0 Z M 71.621094 0 "/></g></g><g style="fill:#063472;fill-opacity:1;"><g transform="translate(167.179637, 160.717869)"><path style="stroke:none" d="M 9.238281 -94.511719 L 9.238281 0 L 28.246094 0 L 28.246094 -7.363281 C 31.460938 -2.945312 38.554688 1.875 48.59375 1.875 C 71.21875 1.875 79.117188 -18.339844 79.117188 -36.277344 C 79.117188 -59.171875 66 -71.890625 49.265625 -71.890625 C 36.679688 -71.890625 32.398438 -66.800781 29.316406 -63.457031 L 29.316406 -94.511719 Z M 59.039062 -35.742188 C 59.039062 -29.585938 58.101562 -13.386719 44.175781 -13.386719 C 31.863281 -13.386719 28.78125 -24.363281 28.78125 -35.476562 C 28.78125 -51.675781 36.277344 -56.894531 44.980469 -56.894531 C 57.832031 -56.894531 59.039062 -42.035156 59.039062 -35.742188 Z M 59.039062 -35.742188 "/></g></g><g style="fill:#063472;fill-opacity:1;"><g transform="translate(245.755888, 160.717869)"><path style="stroke:none" d="M 79.386719 -34.941406 C 79.386719 -51.675781 70.417969 -72.023438 41.097656 -72.023438 C 14.992188 -72.023438 4.285156 -53.011719 4.285156 -35.34375 C 4.285156 -7.765625 23.5625 2.140625 41.769531 2.140625 C 65.195312 2.140625 79.386719 -12.316406 79.386719 -34.941406 Z M 58.5 -34.269531 C 58.5 -23.828125 53.414062 -14.324219 42.035156 -14.324219 C 29.988281 -14.324219 25.035156 -23.5625 25.035156 -35.207031 C 25.035156 -49.800781 33.199219 -55.691406 40.964844 -55.691406 C 52.210938 -55.691406 58.5 -49.132812 58.5 -34.269531 Z M 58.5 -34.269531 "/></g></g><g style="fill:#063472;fill-opacity:1;"><g transform="translate(324.332139, 160.717869)"><path style="stroke:none" d="M 69.613281 0 L 45.917969 -37.214844 L 67.070312 -69.882812 L 44.980469 -69.882812 L 35.074219 -52.074219 L 25.835938 -69.882812 L 2.542969 -69.882812 L 23.695312 -37.886719 L 0 0 L 22.757812 0 L 34.40625 -21.6875 L 47.660156 0 Z M 69.613281 0 "/></g></g><g style="fill:#063472;fill-opacity:1;"><g transform="translate(388.986804, 160.717869)"><path style="stroke:none" d=""/></g></g><g style="fill:#063472;fill-opacity:1;"><g transform="translate(422.987195, 160.717869)"><path style="stroke:none" d="M 70.417969 0 C 68.675781 -2.542969 68.410156 -4.820312 68.410156 -10.84375 L 68.410156 -51.675781 C 68.410156 -68.542969 50.335938 -71.753906 38.289062 -71.753906 C 23.027344 -71.753906 8.835938 -65.464844 8.835938 -50.066406 L 29.453125 -50.066406 C 29.988281 -53.148438 31.59375 -58.234375 40.296875 -58.234375 C 47.792969 -58.234375 48.195312 -52.210938 48.195312 -49.800781 L 48.195312 -45.917969 C 32.796875 -42.972656 25.4375 -41.5 20.617188 -39.492188 C 11.914062 -35.878906 5.890625 -28.113281 5.890625 -19.410156 C 5.890625 -9.371094 12.851562 1.875 28.78125 1.875 C 39.492188 1.875 44.714844 -2.675781 50.203125 -6.292969 L 50.203125 0 Z M 48.195312 -33.46875 L 48.195312 -30.390625 C 48.195312 -20.480469 42.035156 -13.253906 34.003906 -13.253906 C 28.113281 -13.253906 26.105469 -17.9375 26.105469 -20.347656 C 26.105469 -23.425781 27.84375 -26.773438 34.941406 -29.050781 Z M 48.195312 -33.46875 "/></g></g><g style="fill:#063472;fill-opacity:1;"><g transform="translate(495.941264, 160.717869)"><path style="stroke:none" d="M 45.648438 -55.558594 L 45.648438 -68.140625 L 31.996094 -68.140625 L 31.996094 -90.09375 L 11.648438 -90.09375 L 11.648438 -68.273438 L 1.472656 -68.273438 L 1.472656 -55.691406 L 11.648438 -55.691406 L 11.648438 -19.277344 C 11.648438 -2.945312 20.347656 0.535156 31.59375 0.535156 C 39.089844 0.535156 43.242188 -0.269531 44.578125 -0.535156 L 44.578125 -16.464844 C 44.578125 -16.464844 38.824219 -16.332031 37.351562 -16.332031 C 34.136719 -16.332031 31.996094 -17.402344 31.996094 -22.089844 L 31.996094 -55.558594 Z M 45.648438 -55.558594 "/></g></g><g style="fill:#063472;fill-opacity:1;"><g transform="translate(538.241082, 160.717869)"><path style="stroke:none" d="M 71.890625 0 L 71.890625 -47.792969 C 71.890625 -62.652344 64.125 -71.753906 49.667969 -71.753906 C 45.648438 -71.753906 37.351562 -70.816406 29.71875 -62.382812 L 29.71875 -94.511719 L 9.101562 -94.511719 L 9.101562 0 L 29.71875 0 L 29.71875 -36.816406 C 29.71875 -47.792969 32.261719 -54.21875 40.832031 -54.21875 C 51.003906 -54.21875 51.40625 -44.980469 51.40625 -37.75 L 51.40625 0 Z M 71.890625 0 "/></g></g><g style="fill:#063472;fill-opacity:1;"><g transform="translate(614.006231, 160.717869)"><path style="stroke:none" d="M 29.71875 0 L 29.71875 -94.511719 L 9.238281 -94.511719 L 9.238281 0 Z M 29.71875 0 "/></g></g><g style="fill:#063472;fill-opacity:1;"><g transform="translate(648.006622, 160.717869)"><path style="stroke:none" d="M 75.234375 -30.65625 L 75.234375 -31.59375 C 75.234375 -51.003906 66.398438 -72.023438 40.160156 -72.023438 C 12.851562 -72.023438 4.285156 -51.140625 4.285156 -33.601562 C 4.285156 -10.976562 18.339844 2.542969 39.625 2.542969 C 54.085938 2.542969 66.535156 -4.417969 74.433594 -17.671875 L 58.902344 -25.703125 C 56.761719 -19.945312 51.003906 -13.253906 41.234375 -13.253906 C 31.726562 -13.253906 25.300781 -20.480469 25.300781 -29.851562 L 25.300781 -30.65625 Z M 25.300781 -43.507812 C 26.238281 -49.132812 30.253906 -57.296875 40.027344 -57.296875 C 48.460938 -57.296875 53.683594 -51.273438 53.949219 -43.507812 Z M 25.300781 -43.507812 "/></g></g><g style="fill:#063472;fill-opacity:1;"><g transform="translate(720.960692, 160.717869)"><path style="stroke:none" d="M 45.648438 -55.558594 L 45.648438 -68.140625 L 31.996094 -68.140625 L 31.996094 -90.09375 L 11.648438 -90.09375 L 11.648438 -68.273438 L 1.472656 -68.273438 L 1.472656 -55.691406 L 11.648438 -55.691406 L 11.648438 -19.277344 C 11.648438 -2.945312 20.347656 0.535156 31.59375 0.535156 C 39.089844 0.535156 43.242188 -0.269531 44.578125 -0.535156 L 44.578125 -16.464844 C 44.578125 -16.464844 38.824219 -16.332031 37.351562 -16.332031 C 34.136719 -16.332031 31.996094 -17.402344 31.996094 -22.089844 L 31.996094 -55.558594 Z M 45.648438 -55.558594 "/></g></g><g style="fill:#063472;fill-opacity:1;"><g transform="translate(763.26051, 160.717869)"><path style="stroke:none" d="M 29.71875 -78.582031 L 29.71875 -94.511719 L 9.238281 -94.511719 L 9.238281 -78.582031 Z M 29.71875 0 L 29.71875 -69.882812 L 9.238281 -69.882812 L 9.238281 0 Z M 29.71875 0 "/></g></g><g style="fill:#063472;fill-opacity:1;"><g transform="translate(797.260946, 160.717869)"><path style="stroke:none" d="M 54.621094 -24.5 C 53.148438 -20.082031 49.132812 -14.054688 41.097656 -14.054688 C 29.71875 -14.054688 25.570312 -26.238281 25.570312 -35.074219 C 25.570312 -43.507812 29.453125 -56.09375 40.429688 -56.09375 C 48.460938 -56.09375 52.210938 -50.203125 54.085938 -46.320312 L 69.34375 -55.019531 C 59.574219 -70.550781 45.785156 -71.890625 39.492188 -71.890625 C 23.695312 -71.890625 4.417969 -62.382812 4.417969 -34.40625 C 4.417969 -8.167969 22.757812 2.277344 39.089844 2.277344 C 49.800781 2.277344 62.25 -2.675781 70.148438 -16.464844 Z M 54.621094 -24.5 "/></g></g><g style="fill:#063472;fill-opacity:1;"><g transform="translate(864.325053, 160.717869)"><path style="stroke:none" d="M 65.328125 -61.714844 C 56.894531 -68.140625 46.1875 -72.15625 34.269531 -72.15625 C 14.59375 -72.15625 4.683594 -60.644531 4.683594 -48.730469 C 4.683594 -38.019531 11.511719 -30.789062 28.113281 -27.980469 L 34.40625 -26.90625 C 41.902344 -25.703125 45.515625 -24.632812 45.515625 -20.75 C 45.515625 -16.332031 39.894531 -13.921875 33.066406 -13.921875 C 25.570312 -13.921875 17.804688 -18.207031 12.71875 -23.5625 L -0.269531 -11.78125 C 4.820312 -6.292969 16.199219 1.742188 33.601562 1.742188 C 48.195312 1.742188 66.667969 -5.222656 66.667969 -22.625 C 66.667969 -35.609375 56.628906 -41.769531 41.5 -44.578125 L 36.546875 -45.515625 C 28.378906 -47.121094 25.167969 -48.195312 25.167969 -51.539062 C 25.167969 -55.421875 30.390625 -56.894531 34.804688 -56.894531 C 41.367188 -56.894531 48.058594 -53.683594 52.613281 -49.933594 Z M 65.328125 -61.714844 "/></g></g></g></svg>