<svg xmlns="http://www.w3.org/2000/svg" xmlns:xlink="http://www.w3.org/1999/xlink" width="500" zoomAndPan="magnify" viewBox="0 0 375 76.499998" height="102" preserveAspectRatio="xMidYMid meet" version="1.0"><defs><g/><clipPath id="078bda92ec"><path d="M 337 12 L 365.847656 12 L 365.847656 44 L 337 44 Z M 337 12 " clip-rule="nonzero"/></clipPath><clipPath id="0e3d8da11c"><rect x="0" width="366" y="0" height="57"/></clipPath><clipPath id="a9b761b869"><path d="M 290 9 L 297.75 9 L 297.75 20 L 290 20 Z M 290 9 " clip-rule="nonzero"/></clipPath><clipPath id="de09ee7598"><rect x="0" width="298" y="0" height="26"/></clipPath></defs><g transform="matrix(1, 0, 0, 1, 4, 10)"><g clip-path="url(#0e3d8da11c)"><g fill="#2563eb" fill-opacity="1"><g transform="translate(0.521753, 42.469711)"><g><path d="M 12.40625 -32.800781 L 12.40625 -39.453125 L 3.855469 -39.453125 L 3.855469 -32.800781 Z M 12.40625 0 L 12.40625 -29.171875 L 3.855469 -29.171875 L 3.855469 0 Z M 12.40625 0 "/></g></g></g><g fill="#2563eb" fill-opacity="1"><g transform="translate(14.715115, 42.469711)"><g><path d="M 29.898438 0 L 29.898438 -20.957031 C 29.898438 -26.878906 26.765625 -29.898438 20.84375 -29.898438 C 16.765625 -29.898438 14.027344 -28.277344 12.628906 -26.601562 L 12.628906 -29.171875 L 3.910156 -29.171875 L 3.910156 0 L 12.515625 0 L 12.515625 -16.316406 C 12.515625 -20.230469 13.078125 -23.023438 17.042969 -23.023438 C 20.507812 -23.023438 21.289062 -20.730469 21.289062 -17.992188 L 21.289062 0 Z M 29.898438 0 "/></g></g></g><g fill="#2563eb" fill-opacity="1"><g transform="translate(46.343, 42.469711)"><g><path d="M 3.855469 -39.453125 L 3.855469 0 L 11.792969 0 L 11.792969 -3.074219 C 13.132812 -1.230469 16.09375 0.78125 20.285156 0.78125 C 29.730469 0.78125 33.027344 -7.65625 33.027344 -15.144531 C 33.027344 -24.699219 27.550781 -30.007812 20.5625 -30.007812 C 15.3125 -30.007812 13.523438 -27.886719 12.238281 -26.488281 L 12.238281 -39.453125 Z M 24.644531 -14.921875 C 24.644531 -12.351562 24.253906 -5.589844 18.441406 -5.589844 C 13.300781 -5.589844 12.015625 -10.171875 12.015625 -14.808594 C 12.015625 -21.570312 15.144531 -23.75 18.777344 -23.75 C 24.140625 -23.75 24.644531 -17.546875 24.644531 -14.921875 Z M 24.644531 -14.921875 "/></g></g></g><g fill="#2563eb" fill-opacity="1"><g transform="translate(79.144359, 42.469711)"><g><path d="M 33.136719 -14.585938 C 33.136719 -21.570312 29.394531 -30.0625 17.15625 -30.0625 C 6.257812 -30.0625 1.789062 -22.128906 1.789062 -14.753906 C 1.789062 -3.242188 9.835938 0.894531 17.433594 0.894531 C 27.214844 0.894531 33.136719 -5.140625 33.136719 -14.585938 Z M 24.421875 -14.304688 C 24.421875 -9.945312 22.296875 -5.980469 17.546875 -5.980469 C 12.515625 -5.980469 10.449219 -9.835938 10.449219 -14.695312 C 10.449219 -20.789062 13.859375 -23.246094 17.101562 -23.246094 C 21.792969 -23.246094 24.421875 -20.507812 24.421875 -14.304688 Z M 24.421875 -14.304688 "/></g></g></g><g fill="#2563eb" fill-opacity="1"><g transform="translate(111.945719, 42.469711)"><g><path d="M 29.058594 0 L 19.167969 -15.535156 L 27.996094 -29.171875 L 18.777344 -29.171875 L 14.640625 -21.738281 L 10.785156 -29.171875 L 1.0625 -29.171875 L 9.890625 -15.816406 L 0 0 L 9.5 0 L 14.363281 -9.054688 L 19.894531 0 Z M 29.058594 0 "/></g></g></g><g fill="#2563eb" fill-opacity="1"><g transform="translate(138.935572, 42.469711)"><g/></g></g><g fill="#2563eb" fill-opacity="1"><g transform="translate(153.12894, 42.469711)"><g><path d="M 29.394531 0 C 28.667969 -1.0625 28.554688 -2.011719 28.554688 -4.527344 L 28.554688 -21.570312 C 28.554688 -28.613281 21.011719 -29.953125 15.980469 -29.953125 C 9.613281 -29.953125 3.6875 -27.324219 3.6875 -20.898438 L 12.292969 -20.898438 C 12.515625 -22.183594 13.1875 -24.308594 16.820312 -24.308594 C 19.949219 -24.308594 20.117188 -21.792969 20.117188 -20.789062 L 20.117188 -19.167969 C 13.691406 -17.9375 10.617188 -17.324219 8.605469 -16.484375 C 4.972656 -14.976562 2.457031 -11.734375 2.457031 -8.101562 C 2.457031 -3.910156 5.363281 0.78125 12.015625 0.78125 C 16.484375 0.78125 18.664062 -1.117188 20.957031 -2.625 L 20.957031 0 Z M 20.117188 -13.96875 L 20.117188 -12.683594 C 20.117188 -8.550781 17.546875 -5.53125 14.195312 -5.53125 C 11.734375 -5.53125 10.898438 -7.488281 10.898438 -8.492188 C 10.898438 -9.777344 11.625 -11.175781 14.585938 -12.125 Z M 20.117188 -13.96875 "/></g></g></g><g fill="#2563eb" fill-opacity="1"><g transform="translate(183.583345, 42.469711)"><g><path d="M 19.054688 -23.191406 L 19.054688 -28.445312 L 13.355469 -28.445312 L 13.355469 -37.609375 L 4.863281 -37.609375 L 4.863281 -28.5 L 0.613281 -28.5 L 0.613281 -23.246094 L 4.863281 -23.246094 L 4.863281 -8.046875 C 4.863281 -1.230469 8.492188 0.222656 13.1875 0.222656 C 16.316406 0.222656 18.050781 -0.113281 18.609375 -0.222656 L 18.609375 -6.875 C 18.609375 -6.875 16.207031 -6.816406 15.589844 -6.816406 C 14.25 -6.816406 13.355469 -7.265625 13.355469 -9.21875 L 13.355469 -23.191406 Z M 19.054688 -23.191406 "/></g></g></g><g fill="#2563eb" fill-opacity="1"><g transform="translate(201.241254, 42.469711)"><g><path d="M 30.007812 0 L 30.007812 -19.949219 C 30.007812 -26.152344 26.765625 -29.953125 20.730469 -29.953125 C 19.054688 -29.953125 15.589844 -29.5625 12.40625 -26.039062 L 12.40625 -39.453125 L 3.800781 -39.453125 L 3.800781 0 L 12.40625 0 L 12.40625 -15.367188 C 12.40625 -19.949219 13.46875 -22.632812 17.042969 -22.632812 C 21.289062 -22.632812 21.457031 -18.777344 21.457031 -15.757812 L 21.457031 0 Z M 30.007812 0 "/></g></g></g><g fill="#2563eb" fill-opacity="1"><g transform="translate(232.869134, 42.469711)"><g><path d="M 12.40625 0 L 12.40625 -39.453125 L 3.855469 -39.453125 L 3.855469 0 Z M 12.40625 0 "/></g></g></g><g fill="#2563eb" fill-opacity="1"><g transform="translate(247.062502, 42.469711)"><g><path d="M 31.40625 -12.796875 L 31.40625 -13.1875 C 31.40625 -21.289062 27.71875 -30.0625 16.765625 -30.0625 C 5.363281 -30.0625 1.789062 -21.347656 1.789062 -14.027344 C 1.789062 -4.582031 7.65625 1.0625 16.539062 1.0625 C 22.578125 1.0625 27.773438 -1.84375 31.070312 -7.375 L 24.589844 -10.730469 C 23.695312 -8.328125 21.289062 -5.53125 17.210938 -5.53125 C 13.242188 -5.53125 10.5625 -8.550781 10.5625 -12.460938 L 10.5625 -12.796875 Z M 10.5625 -18.160156 C 10.953125 -20.507812 12.628906 -23.917969 16.707031 -23.917969 C 20.230469 -23.917969 22.410156 -21.402344 22.519531 -18.160156 Z M 10.5625 -18.160156 "/></g></g></g><g fill="#2563eb" fill-opacity="1"><g transform="translate(277.516907, 42.469711)"><g><path d="M 19.054688 -23.191406 L 19.054688 -28.445312 L 13.355469 -28.445312 L 13.355469 -37.609375 L 4.863281 -37.609375 L 4.863281 -28.5 L 0.613281 -28.5 L 0.613281 -23.246094 L 4.863281 -23.246094 L 4.863281 -8.046875 C 4.863281 -1.230469 8.492188 0.222656 13.1875 0.222656 C 16.316406 0.222656 18.050781 -0.113281 18.609375 -0.222656 L 18.609375 -6.875 C 18.609375 -6.875 16.207031 -6.816406 15.589844 -6.816406 C 14.25 -6.816406 13.355469 -7.265625 13.355469 -9.21875 L 13.355469 -23.191406 Z M 19.054688 -23.191406 "/></g></g></g><g fill="#2563eb" fill-opacity="1"><g transform="translate(295.174816, 42.469711)"><g><path d="M 12.40625 -32.800781 L 12.40625 -39.453125 L 3.855469 -39.453125 L 3.855469 -32.800781 Z M 12.40625 0 L 12.40625 -29.171875 L 3.855469 -29.171875 L 3.855469 0 Z M 12.40625 0 "/></g></g></g><g fill="#2563eb" fill-opacity="1"><g transform="translate(309.368184, 42.469711)"><g><path d="M 22.800781 -10.226562 C 22.183594 -8.382812 20.507812 -5.867188 17.15625 -5.867188 C 12.40625 -5.867188 10.671875 -10.953125 10.671875 -14.640625 C 10.671875 -18.160156 12.292969 -23.414062 16.875 -23.414062 C 20.230469 -23.414062 21.792969 -20.957031 22.578125 -19.335938 L 28.945312 -22.96875 C 24.867188 -29.449219 19.113281 -30.007812 16.484375 -30.007812 C 9.890625 -30.007812 1.84375 -26.039062 1.84375 -14.363281 C 1.84375 -3.410156 9.5 0.949219 16.316406 0.949219 C 20.789062 0.949219 25.984375 -1.117188 29.28125 -6.875 Z M 22.800781 -10.226562 "/></g></g></g><g clip-path="url(#078bda92ec)"><g fill="#2563eb" fill-opacity="1"><g transform="translate(337.363855, 42.469711)"><g><path d="M 27.269531 -25.761719 C 23.75 -28.445312 19.277344 -30.121094 14.304688 -30.121094 C 6.089844 -30.121094 1.957031 -25.3125 1.957031 -20.339844 C 1.957031 -15.871094 4.804688 -12.851562 11.734375 -11.679688 L 14.363281 -11.230469 C 17.492188 -10.730469 19 -10.28125 19 -8.660156 C 19 -6.816406 16.652344 -5.8125 13.804688 -5.8125 C 10.671875 -5.8125 7.433594 -7.601562 5.308594 -9.835938 L -0.113281 -4.917969 C 2.011719 -2.625 6.761719 0.726562 14.027344 0.726562 C 20.117188 0.726562 27.828125 -2.179688 27.828125 -9.445312 C 27.828125 -14.863281 23.636719 -17.433594 17.324219 -18.609375 L 15.253906 -19 C 11.847656 -19.671875 10.503906 -20.117188 10.503906 -21.515625 C 10.503906 -23.136719 12.683594 -23.75 14.527344 -23.75 C 17.265625 -23.75 20.0625 -22.410156 21.960938 -20.84375 Z M 27.269531 -25.761719 "/></g></g></g></g></g></g><g transform="matrix(1, 0, 0, 1, 38, 50)"><g clip-path="url(#de09ee7598)"><g fill="#2563eb" fill-opacity="1"><g transform="translate(0.648416, 19.026694)"><g><path d="M 1.417969 -9.023438 L 1.417969 0 L 2.535156 0 L 2.535156 -4.9375 C 2.535156 -6.753906 3.140625 -8.171875 5.070312 -8.171875 C 5.335938 -8.171875 5.5625 -8.152344 5.789062 -8.117188 L 5.789062 -9.121094 C 5.46875 -9.15625 5.164062 -9.15625 5.011719 -9.15625 C 3.898438 -9.15625 3.007812 -8.644531 2.535156 -7.585938 L 2.535156 -9.023438 Z M 1.417969 -9.023438 "/></g></g></g><g fill="#2563eb" fill-opacity="1"><g transform="translate(5.851256, 19.026694)"><g><path d="M 2.0625 -4.503906 L 9.0625 -4.503906 L 9.0625 -4.671875 C 9.0625 -7.019531 7.550781 -9.25 4.996094 -9.25 C 2.894531 -9.25 0.832031 -7.679688 0.832031 -4.597656 C 0.832031 -3.027344 1.476562 0.226562 5.144531 0.226562 C 7.699219 0.226562 8.644531 -1.457031 9.0625 -2.382812 L 8.023438 -2.6875 C 7.152344 -0.964844 5.902344 -0.792969 5.089844 -0.792969 C 2.628906 -0.792969 2.0625 -2.894531 2.0625 -4.238281 Z M 2.082031 -5.429688 C 2.214844 -6.699219 3.066406 -8.25 4.976562 -8.25 C 5.960938 -8.25 7.511719 -7.757812 7.777344 -5.429688 Z M 2.082031 -5.429688 "/></g></g></g><g fill="#2563eb" fill-opacity="1"><g transform="translate(14.989334, 19.026694)"><g><path d="M 7.453125 -2.269531 C 6.925781 -1.285156 6.148438 -0.757812 5.011719 -0.757812 C 2.953125 -0.757812 2.042969 -2.476562 2.042969 -4.503906 C 2.042969 -6.46875 3.027344 -8.25 5.109375 -8.25 C 6.167969 -8.25 7.152344 -7.738281 7.550781 -6.734375 L 8.589844 -6.980469 C 8.117188 -8.230469 7.09375 -9.25 5.164062 -9.25 C 2.628906 -9.25 0.832031 -7.398438 0.832031 -4.445312 C 0.832031 -1.664062 2.421875 0.226562 4.976562 0.226562 C 7.019531 0.226562 8.039062 -0.851562 8.589844 -2.003906 Z M 7.453125 -2.269531 "/></g></g></g><g fill="#2563eb" fill-opacity="1"><g transform="translate(23.332794, 19.026694)"><g><path d="M 1.417969 -9.023438 L 1.417969 0 L 2.535156 0 L 2.535156 -4.9375 C 2.535156 -6.753906 3.140625 -8.171875 5.070312 -8.171875 C 5.335938 -8.171875 5.5625 -8.152344 5.789062 -8.117188 L 5.789062 -9.121094 C 5.46875 -9.15625 5.164062 -9.15625 5.011719 -9.15625 C 3.898438 -9.15625 3.007812 -8.644531 2.535156 -7.585938 L 2.535156 -9.023438 Z M 1.417969 -9.023438 "/></g></g></g><g fill="#2563eb" fill-opacity="1"><g transform="translate(28.535634, 19.026694)"><g><path d="M 8.4375 0 L 8.4375 -9.023438 L 7.320312 -9.023438 L 7.320312 -4.464844 C 7.320312 -3.539062 7.265625 -2.59375 6.714844 -1.835938 C 5.996094 -0.851562 5.03125 -0.832031 4.578125 -0.832031 C 3.253906 -0.832031 2.855469 -1.609375 2.707031 -2.15625 C 2.574219 -2.667969 2.554688 -3.253906 2.554688 -4.351562 L 2.554688 -9.023438 L 1.417969 -9.023438 L 1.417969 -4.597656 C 1.417969 -3.179688 1.476562 -2.328125 1.664062 -1.703125 C 2.0625 -0.453125 3.199219 0.207031 4.445312 0.207031 C 5.980469 0.207031 6.828125 -0.511719 7.320312 -1.628906 L 7.320312 0 Z M 8.4375 0 "/></g></g></g><g fill="#2563eb" fill-opacity="1"><g transform="translate(37.673712, 19.026694)"><g><path d="M 2.515625 -11.144531 L 2.515625 -12.863281 L 1.417969 -12.863281 L 1.417969 -11.144531 Z M 2.515625 0 L 2.515625 -9.023438 L 1.417969 -9.023438 L 1.417969 0 Z M 2.515625 0 "/></g></g></g><g fill="#2563eb" fill-opacity="1"><g transform="translate(40.890014, 19.026694)"><g><path d="M 3.253906 -8.078125 L 5.242188 -8.078125 L 5.242188 -9.023438 L 3.253906 -9.023438 L 3.253906 -12.863281 L 2.175781 -12.863281 L 2.175781 -9.023438 L 0.285156 -9.023438 L 0.285156 -8.078125 L 2.175781 -8.078125 L 2.175781 -2.117188 C 2.175781 -1.628906 2.195312 -0.964844 2.308594 -0.644531 C 2.59375 0.152344 3.425781 0.171875 3.746094 0.171875 C 4.523438 0.171875 4.996094 -0.0585938 5.242188 -0.246094 L 5.242188 -1.382812 C 4.898438 -1.136719 4.445312 -0.8125 3.992188 -0.8125 C 3.328125 -0.8125 3.253906 -1.398438 3.253906 -1.910156 Z M 3.253906 -8.078125 "/></g></g></g><g fill="#2563eb" fill-opacity="1"><g transform="translate(45.695547, 19.026694)"><g><path d="M 2.515625 -11.144531 L 2.515625 -12.863281 L 1.417969 -12.863281 L 1.417969 -11.144531 Z M 2.515625 0 L 2.515625 -9.023438 L 1.417969 -9.023438 L 1.417969 0 Z M 2.515625 0 "/></g></g></g><g fill="#2563eb" fill-opacity="1"><g transform="translate(48.911849, 19.026694)"><g><path d="M 8.4375 0 L 8.4375 -5.128906 C 8.4375 -6.375 8.417969 -7.019531 8.117188 -7.664062 C 7.832031 -8.285156 7.058594 -9.214844 5.375 -9.214844 C 3.179688 -9.214844 2.609375 -7.664062 2.535156 -7.417969 L 2.535156 -9.023438 L 1.417969 -9.023438 L 1.417969 0 L 2.535156 0 L 2.535156 -5.164062 C 2.535156 -6.8125 3.367188 -8.210938 5.242188 -8.210938 C 5.847656 -8.210938 6.773438 -8.023438 7.113281 -7.152344 C 7.320312 -6.621094 7.320312 -5.902344 7.320312 -4.691406 L 7.320312 0 Z M 8.4375 0 "/></g></g></g><g fill="#2563eb" fill-opacity="1"><g transform="translate(58.049927, 19.026694)"><g><path d="M 7.738281 -9.023438 L 7.738281 -7.359375 C 7.433594 -8.476562 6.148438 -9.214844 4.769531 -9.214844 C 2.742188 -9.214844 0.832031 -7.890625 0.832031 -4.558594 C 0.832031 -1.664062 2.382812 0.1875 4.75 0.1875 C 6.980469 0.1875 7.664062 -1.304688 7.738281 -1.742188 L 7.738281 0.0742188 C 7.738281 2.441406 7.207031 3.652344 4.957031 3.652344 C 2.515625 3.652344 2.234375 2.195312 2.082031 1.191406 L 0.90625 1.398438 C 0.964844 2.875 1.890625 4.617188 4.804688 4.617188 C 8.324219 4.617188 8.816406 2.460938 8.816406 0.566406 L 8.816406 -9.023438 Z M 1.96875 -4.597656 C 1.96875 -7.019531 3.199219 -8.25 4.898438 -8.25 C 7.304688 -8.25 7.699219 -6.242188 7.699219 -4.652344 C 7.699219 -2.347656 7.019531 -0.8125 4.84375 -0.8125 C 2.839844 -0.8125 1.96875 -2.441406 1.96875 -4.597656 Z M 1.96875 -4.597656 "/></g></g></g><g fill="#2563eb" fill-opacity="1"><g transform="translate(67.585312, 19.026694)"><g/></g></g><g fill="#2563eb" fill-opacity="1"><g transform="translate(71.747585, 19.026694)"><g><path d="M 2.515625 -11.144531 L 2.515625 -12.863281 L 1.417969 -12.863281 L 1.417969 -11.144531 Z M 2.515625 0 L 2.515625 -9.023438 L 1.417969 -9.023438 L 1.417969 0 Z M 2.515625 0 "/></g></g></g><g fill="#2563eb" fill-opacity="1"><g transform="translate(74.963887, 19.026694)"><g><path d="M 8.4375 0 L 8.4375 -5.128906 C 8.4375 -6.375 8.417969 -7.019531 8.117188 -7.664062 C 7.832031 -8.285156 7.058594 -9.214844 5.375 -9.214844 C 3.179688 -9.214844 2.609375 -7.664062 2.535156 -7.417969 L 2.535156 -9.023438 L 1.417969 -9.023438 L 1.417969 0 L 2.535156 0 L 2.535156 -5.164062 C 2.535156 -6.8125 3.367188 -8.210938 5.242188 -8.210938 C 5.847656 -8.210938 6.773438 -8.023438 7.113281 -7.152344 C 7.320312 -6.621094 7.320312 -5.902344 7.320312 -4.691406 L 7.320312 0 Z M 8.4375 0 "/></g></g></g><g fill="#2563eb" fill-opacity="1"><g transform="translate(84.101965, 19.026694)"><g><path d="M 3.253906 -8.078125 L 5.242188 -8.078125 L 5.242188 -9.023438 L 3.253906 -9.023438 L 3.253906 -12.863281 L 2.175781 -12.863281 L 2.175781 -9.023438 L 0.285156 -9.023438 L 0.285156 -8.078125 L 2.175781 -8.078125 L 2.175781 -2.117188 C 2.175781 -1.628906 2.195312 -0.964844 2.308594 -0.644531 C 2.59375 0.152344 3.425781 0.171875 3.746094 0.171875 C 4.523438 0.171875 4.996094 -0.0585938 5.242188 -0.246094 L 5.242188 -1.382812 C 4.898438 -1.136719 4.445312 -0.8125 3.992188 -0.8125 C 3.328125 -0.8125 3.253906 -1.398438 3.253906 -1.910156 Z M 3.253906 -8.078125 "/></g></g></g><g fill="#2563eb" fill-opacity="1"><g transform="translate(88.907498, 19.026694)"><g><path d="M 2.0625 -4.503906 L 9.0625 -4.503906 L 9.0625 -4.671875 C 9.0625 -7.019531 7.550781 -9.25 4.996094 -9.25 C 2.894531 -9.25 0.832031 -7.679688 0.832031 -4.597656 C 0.832031 -3.027344 1.476562 0.226562 5.144531 0.226562 C 7.699219 0.226562 8.644531 -1.457031 9.0625 -2.382812 L 8.023438 -2.6875 C 7.152344 -0.964844 5.902344 -0.792969 5.089844 -0.792969 C 2.628906 -0.792969 2.0625 -2.894531 2.0625 -4.238281 Z M 2.082031 -5.429688 C 2.214844 -6.699219 3.066406 -8.25 4.976562 -8.25 C 5.960938 -8.25 7.511719 -7.757812 7.777344 -5.429688 Z M 2.082031 -5.429688 "/></g></g></g><g fill="#2563eb" fill-opacity="1"><g transform="translate(98.045576, 19.026694)"><g><path d="M 2.535156 0 L 2.535156 -13.355469 L 1.398438 -13.355469 L 1.398438 0 Z M 2.535156 0 "/></g></g></g><g fill="#2563eb" fill-opacity="1"><g transform="translate(101.261883, 19.026694)"><g><path d="M 2.535156 0 L 2.535156 -13.355469 L 1.398438 -13.355469 L 1.398438 0 Z M 2.535156 0 "/></g></g></g><g fill="#2563eb" fill-opacity="1"><g transform="translate(104.478181, 19.026694)"><g><path d="M 2.515625 -11.144531 L 2.515625 -12.863281 L 1.417969 -12.863281 L 1.417969 -11.144531 Z M 2.515625 0 L 2.515625 -9.023438 L 1.417969 -9.023438 L 1.417969 0 Z M 2.515625 0 "/></g></g></g><g fill="#2563eb" fill-opacity="1"><g transform="translate(107.694478, 19.026694)"><g><path d="M 7.738281 -9.023438 L 7.738281 -7.359375 C 7.433594 -8.476562 6.148438 -9.214844 4.769531 -9.214844 C 2.742188 -9.214844 0.832031 -7.890625 0.832031 -4.558594 C 0.832031 -1.664062 2.382812 0.1875 4.75 0.1875 C 6.980469 0.1875 7.664062 -1.304688 7.738281 -1.742188 L 7.738281 0.0742188 C 7.738281 2.441406 7.207031 3.652344 4.957031 3.652344 C 2.515625 3.652344 2.234375 2.195312 2.082031 1.191406 L 0.90625 1.398438 C 0.964844 2.875 1.890625 4.617188 4.804688 4.617188 C 8.324219 4.617188 8.816406 2.460938 8.816406 0.566406 L 8.816406 -9.023438 Z M 1.96875 -4.597656 C 1.96875 -7.019531 3.199219 -8.25 4.898438 -8.25 C 7.304688 -8.25 7.699219 -6.242188 7.699219 -4.652344 C 7.699219 -2.347656 7.019531 -0.8125 4.84375 -0.8125 C 2.839844 -0.8125 1.96875 -2.441406 1.96875 -4.597656 Z M 1.96875 -4.597656 "/></g></g></g><g fill="#2563eb" fill-opacity="1"><g transform="translate(117.229872, 19.026694)"><g><path d="M 2.0625 -4.503906 L 9.0625 -4.503906 L 9.0625 -4.671875 C 9.0625 -7.019531 7.550781 -9.25 4.996094 -9.25 C 2.894531 -9.25 0.832031 -7.679688 0.832031 -4.597656 C 0.832031 -3.027344 1.476562 0.226562 5.144531 0.226562 C 7.699219 0.226562 8.644531 -1.457031 9.0625 -2.382812 L 8.023438 -2.6875 C 7.152344 -0.964844 5.902344 -0.792969 5.089844 -0.792969 C 2.628906 -0.792969 2.0625 -2.894531 2.0625 -4.238281 Z M 2.082031 -5.429688 C 2.214844 -6.699219 3.066406 -8.25 4.976562 -8.25 C 5.960938 -8.25 7.511719 -7.757812 7.777344 -5.429688 Z M 2.082031 -5.429688 "/></g></g></g><g fill="#2563eb" fill-opacity="1"><g transform="translate(126.367941, 19.026694)"><g><path d="M 8.4375 0 L 8.4375 -5.128906 C 8.4375 -6.375 8.417969 -7.019531 8.117188 -7.664062 C 7.832031 -8.285156 7.058594 -9.214844 5.375 -9.214844 C 3.179688 -9.214844 2.609375 -7.664062 2.535156 -7.417969 L 2.535156 -9.023438 L 1.417969 -9.023438 L 1.417969 0 L 2.535156 0 L 2.535156 -5.164062 C 2.535156 -6.8125 3.367188 -8.210938 5.242188 -8.210938 C 5.847656 -8.210938 6.773438 -8.023438 7.113281 -7.152344 C 7.320312 -6.621094 7.320312 -5.902344 7.320312 -4.691406 L 7.320312 0 Z M 8.4375 0 "/></g></g></g><g fill="#2563eb" fill-opacity="1"><g transform="translate(135.506028, 19.026694)"><g><path d="M 7.453125 -2.269531 C 6.925781 -1.285156 6.148438 -0.757812 5.011719 -0.757812 C 2.953125 -0.757812 2.042969 -2.476562 2.042969 -4.503906 C 2.042969 -6.46875 3.027344 -8.25 5.109375 -8.25 C 6.167969 -8.25 7.152344 -7.738281 7.550781 -6.734375 L 8.589844 -6.980469 C 8.117188 -8.230469 7.09375 -9.25 5.164062 -9.25 C 2.628906 -9.25 0.832031 -7.398438 0.832031 -4.445312 C 0.832031 -1.664062 2.421875 0.226562 4.976562 0.226562 C 7.019531 0.226562 8.039062 -0.851562 8.589844 -2.003906 Z M 7.453125 -2.269531 "/></g></g></g><g fill="#2563eb" fill-opacity="1"><g transform="translate(143.849484, 19.026694)"><g><path d="M 2.0625 -4.503906 L 9.0625 -4.503906 L 9.0625 -4.671875 C 9.0625 -7.019531 7.550781 -9.25 4.996094 -9.25 C 2.894531 -9.25 0.832031 -7.679688 0.832031 -4.597656 C 0.832031 -3.027344 1.476562 0.226562 5.144531 0.226562 C 7.699219 0.226562 8.644531 -1.457031 9.0625 -2.382812 L 8.023438 -2.6875 C 7.152344 -0.964844 5.902344 -0.792969 5.089844 -0.792969 C 2.628906 -0.792969 2.0625 -2.894531 2.0625 -4.238281 Z M 2.082031 -5.429688 C 2.214844 -6.699219 3.066406 -8.25 4.976562 -8.25 C 5.960938 -8.25 7.511719 -7.757812 7.777344 -5.429688 Z M 2.082031 -5.429688 "/></g></g></g><g fill="#2563eb" fill-opacity="1"><g transform="translate(152.987552, 19.026694)"><g/></g></g><g fill="#2563eb" fill-opacity="1"><g transform="translate(157.149835, 19.026694)"><g><path d="M 5.582031 -8.078125 L 5.582031 -9.023438 L 3.539062 -9.023438 L 3.539062 -11.390625 C 3.539062 -12.03125 3.6875 -12.636719 4.503906 -12.636719 C 5.03125 -12.636719 5.375 -12.46875 5.582031 -12.390625 L 5.582031 -13.488281 C 5.164062 -13.566406 4.863281 -13.621094 4.425781 -13.621094 C 2.515625 -13.621094 2.421875 -12.335938 2.421875 -11.523438 L 2.421875 -9.023438 L 0.433594 -9.023438 L 0.433594 -8.078125 L 2.421875 -8.078125 L 2.421875 0 L 3.539062 0 L 3.539062 -8.078125 Z M 5.582031 -8.078125 "/></g></g></g><g fill="#2563eb" fill-opacity="1"><g transform="translate(162.352675, 19.026694)"><g><path d="M 9.023438 -4.558594 C 8.988281 -6.847656 7.777344 -9.25 4.957031 -9.25 C 2.363281 -9.25 0.832031 -7.207031 0.832031 -4.410156 C 0.832031 -1.496094 2.554688 0.226562 4.882812 0.226562 C 6.847656 0.226562 9.023438 -1.191406 9.023438 -4.558594 Z M 7.832031 -4.558594 C 7.832031 -1.664062 6.300781 -0.757812 4.898438 -0.757812 C 3.480469 -0.757812 2.023438 -1.628906 2.023438 -4.410156 C 2.023438 -7.113281 3.3125 -8.304688 4.9375 -8.304688 C 6.355469 -8.304688 7.832031 -7.398438 7.832031 -4.558594 Z M 7.832031 -4.558594 "/></g></g></g><g fill="#2563eb" fill-opacity="1"><g transform="translate(171.490743, 19.026694)"><g><path d="M 1.417969 -9.023438 L 1.417969 0 L 2.535156 0 L 2.535156 -4.9375 C 2.535156 -6.753906 3.140625 -8.171875 5.070312 -8.171875 C 5.335938 -8.171875 5.5625 -8.152344 5.789062 -8.117188 L 5.789062 -9.121094 C 5.46875 -9.15625 5.164062 -9.15625 5.011719 -9.15625 C 3.898438 -9.15625 3.007812 -8.644531 2.535156 -7.585938 L 2.535156 -9.023438 Z M 1.417969 -9.023438 "/></g></g></g><g fill="#2563eb" fill-opacity="1"><g transform="translate(176.693583, 19.026694)"><g/></g></g><g fill="#2563eb" fill-opacity="1"><g transform="translate(180.855866, 19.026694)"><g><path d="M 0.644531 -2.195312 C 1.609375 0.113281 3.519531 0.226562 4.277344 0.226562 C 6.8125 0.226562 7.644531 -1.4375 7.644531 -2.476562 C 7.644531 -3.878906 6.734375 -4.785156 5.144531 -5.109375 L 4.199219 -5.296875 C 3.425781 -5.449219 2.308594 -5.695312 2.308594 -6.753906 C 2.308594 -7.304688 2.554688 -8.269531 4.390625 -8.269531 C 5.296875 -8.269531 6.375 -7.964844 6.582031 -6.925781 L 7.644531 -7.207031 C 7.566406 -7.511719 7.359375 -8.171875 6.660156 -8.664062 C 5.828125 -9.25 4.710938 -9.25 4.445312 -9.25 C 3.652344 -9.25 2.609375 -9.0625 1.988281 -8.496094 C 1.269531 -7.851562 1.210938 -6.980469 1.210938 -6.660156 C 1.210938 -5.335938 2.15625 -4.710938 3.558594 -4.410156 L 4.617188 -4.179688 C 6.109375 -3.859375 6.566406 -3.328125 6.566406 -2.554688 C 6.566406 -1.757812 5.996094 -0.792969 4.257812 -0.792969 C 2.574219 -0.792969 1.890625 -1.949219 1.742188 -2.574219 Z M 0.644531 -2.195312 "/></g></g></g><g fill="#2563eb" fill-opacity="1"><g transform="translate(188.802015, 19.026694)"><g><path d="M 3.253906 -8.078125 L 5.242188 -8.078125 L 5.242188 -9.023438 L 3.253906 -9.023438 L 3.253906 -12.863281 L 2.175781 -12.863281 L 2.175781 -9.023438 L 0.285156 -9.023438 L 0.285156 -8.078125 L 2.175781 -8.078125 L 2.175781 -2.117188 C 2.175781 -1.628906 2.195312 -0.964844 2.308594 -0.644531 C 2.59375 0.152344 3.425781 0.171875 3.746094 0.171875 C 4.523438 0.171875 4.996094 -0.0585938 5.242188 -0.246094 L 5.242188 -1.382812 C 4.898438 -1.136719 4.445312 -0.8125 3.992188 -0.8125 C 3.328125 -0.8125 3.253906 -1.398438 3.253906 -1.910156 Z M 3.253906 -8.078125 "/></g></g></g><g fill="#2563eb" fill-opacity="1"><g transform="translate(193.607548, 19.026694)"><g><path d="M 8.4375 0 L 8.4375 -9.023438 L 7.320312 -9.023438 L 7.320312 -4.464844 C 7.320312 -3.539062 7.265625 -2.59375 6.714844 -1.835938 C 5.996094 -0.851562 5.03125 -0.832031 4.578125 -0.832031 C 3.253906 -0.832031 2.855469 -1.609375 2.707031 -2.15625 C 2.574219 -2.667969 2.554688 -3.253906 2.554688 -4.351562 L 2.554688 -9.023438 L 1.417969 -9.023438 L 1.417969 -4.597656 C 1.417969 -3.179688 1.476562 -2.328125 1.664062 -1.703125 C 2.0625 -0.453125 3.199219 0.207031 4.445312 0.207031 C 5.980469 0.207031 6.828125 -0.511719 7.320312 -1.628906 L 7.320312 0 Z M 8.4375 0 "/></g></g></g><g fill="#2563eb" fill-opacity="1"><g transform="translate(202.745635, 19.026694)"><g><path d="M 8.4375 0 L 8.4375 -13.355469 L 7.339844 -13.355469 L 7.339844 -7.585938 C 7 -8.609375 5.902344 -9.214844 4.730469 -9.214844 C 2.347656 -9.214844 0.832031 -7.207031 0.832031 -4.523438 C 0.832031 -1.835938 2.308594 0.207031 4.558594 0.207031 C 5.769531 0.207031 6.925781 -0.433594 7.339844 -1.628906 L 7.339844 0 Z M 2.042969 -4.523438 C 2.042969 -6.753906 3.082031 -8.191406 4.785156 -8.191406 C 5.675781 -8.191406 7.359375 -7.832031 7.359375 -4.84375 L 7.359375 -4.351562 C 7.359375 -1.871094 6.1875 -0.851562 4.730469 -0.851562 C 3.328125 -0.851562 2.042969 -1.855469 2.042969 -4.523438 Z M 2.042969 -4.523438 "/></g></g></g><g fill="#2563eb" fill-opacity="1"><g transform="translate(211.883704, 19.026694)"><g><path d="M 2.0625 -4.503906 L 9.0625 -4.503906 L 9.0625 -4.671875 C 9.0625 -7.019531 7.550781 -9.25 4.996094 -9.25 C 2.894531 -9.25 0.832031 -7.679688 0.832031 -4.597656 C 0.832031 -3.027344 1.476562 0.226562 5.144531 0.226562 C 7.699219 0.226562 8.644531 -1.457031 9.0625 -2.382812 L 8.023438 -2.6875 C 7.152344 -0.964844 5.902344 -0.792969 5.089844 -0.792969 C 2.628906 -0.792969 2.0625 -2.894531 2.0625 -4.238281 Z M 2.082031 -5.429688 C 2.214844 -6.699219 3.066406 -8.25 4.976562 -8.25 C 5.960938 -8.25 7.511719 -7.757812 7.777344 -5.429688 Z M 2.082031 -5.429688 "/></g></g></g><g fill="#2563eb" fill-opacity="1"><g transform="translate(221.021791, 19.026694)"><g><path d="M 8.4375 0 L 8.4375 -5.128906 C 8.4375 -6.375 8.417969 -7.019531 8.117188 -7.664062 C 7.832031 -8.285156 7.058594 -9.214844 5.375 -9.214844 C 3.179688 -9.214844 2.609375 -7.664062 2.535156 -7.417969 L 2.535156 -9.023438 L 1.417969 -9.023438 L 1.417969 0 L 2.535156 0 L 2.535156 -5.164062 C 2.535156 -6.8125 3.367188 -8.210938 5.242188 -8.210938 C 5.847656 -8.210938 6.773438 -8.023438 7.113281 -7.152344 C 7.320312 -6.621094 7.320312 -5.902344 7.320312 -4.691406 L 7.320312 0 Z M 8.4375 0 "/></g></g></g><g fill="#2563eb" fill-opacity="1"><g transform="translate(230.15986, 19.026694)"><g><path d="M 3.253906 -8.078125 L 5.242188 -8.078125 L 5.242188 -9.023438 L 3.253906 -9.023438 L 3.253906 -12.863281 L 2.175781 -12.863281 L 2.175781 -9.023438 L 0.285156 -9.023438 L 0.285156 -8.078125 L 2.175781 -8.078125 L 2.175781 -2.117188 C 2.175781 -1.628906 2.195312 -0.964844 2.308594 -0.644531 C 2.59375 0.152344 3.425781 0.171875 3.746094 0.171875 C 4.523438 0.171875 4.996094 -0.0585938 5.242188 -0.246094 L 5.242188 -1.382812 C 4.898438 -1.136719 4.445312 -0.8125 3.992188 -0.8125 C 3.328125 -0.8125 3.253906 -1.398438 3.253906 -1.910156 Z M 3.253906 -8.078125 "/></g></g></g><g fill="#2563eb" fill-opacity="1"><g transform="translate(234.965392, 19.026694)"><g><path d="M 5.734375 -4.996094 L 5.734375 -6.128906 L 0.71875 -6.128906 L 0.71875 -4.996094 Z M 5.734375 -4.996094 "/></g></g></g><g fill="#2563eb" fill-opacity="1"><g transform="translate(240.697974, 19.026694)"><g><path d="M 9.308594 0 L 9.308594 -0.890625 L 9.121094 -0.890625 C 8.003906 -0.890625 7.964844 -1.363281 7.964844 -2.574219 L 7.964844 -6.527344 C 7.964844 -8.777344 6.222656 -9.25 4.652344 -9.25 C 2.574219 -9.25 1.34375 -8.136719 1.117188 -6.300781 L 2.347656 -6.09375 C 2.347656 -7.550781 2.933594 -8.269531 4.785156 -8.269531 C 6.453125 -8.269531 6.886719 -7.304688 6.886719 -6.433594 L 6.886719 -5.734375 L 5.375 -5.390625 C 2.382812 -4.710938 0.851562 -4.066406 0.851562 -2.269531 C 0.851562 -0.984375 1.777344 0.1875 3.6875 0.1875 C 5.65625 0.1875 6.679688 -0.964844 6.886719 -1.644531 C 6.886719 -0.378906 7.585938 0 9.082031 0 Z M 6.886719 -4.085938 C 6.886719 -3.253906 6.8125 -2.875 6.640625 -2.496094 C 6.1875 -1.457031 4.84375 -0.792969 3.746094 -0.792969 C 2.421875 -0.792969 1.929688 -1.664062 1.929688 -2.289062 C 1.929688 -3.613281 3.253906 -3.804688 6.320312 -4.617188 L 6.886719 -4.769531 Z M 6.886719 -4.085938 "/></g></g></g><g fill="#2563eb" fill-opacity="1"><g transform="translate(249.438755, 19.026694)"><g><path d="M 3.253906 -8.078125 L 5.242188 -8.078125 L 5.242188 -9.023438 L 3.253906 -9.023438 L 3.253906 -12.863281 L 2.175781 -12.863281 L 2.175781 -9.023438 L 0.285156 -9.023438 L 0.285156 -8.078125 L 2.175781 -8.078125 L 2.175781 -2.117188 C 2.175781 -1.628906 2.195312 -0.964844 2.308594 -0.644531 C 2.59375 0.152344 3.425781 0.171875 3.746094 0.171875 C 4.523438 0.171875 4.996094 -0.0585938 5.242188 -0.246094 L 5.242188 -1.382812 C 4.898438 -1.136719 4.445312 -0.8125 3.992188 -0.8125 C 3.328125 -0.8125 3.253906 -1.398438 3.253906 -1.910156 Z M 3.253906 -8.078125 "/></g></g></g><g fill="#2563eb" fill-opacity="1"><g transform="translate(254.244288, 19.026694)"><g><path d="M 8.417969 0 L 8.417969 -5.089844 C 8.417969 -6.679688 8.34375 -7.417969 7.832031 -8.097656 C 7.058594 -9.136719 5.75 -9.214844 5.355469 -9.214844 C 3.59375 -9.214844 2.839844 -8.171875 2.554688 -7.585938 L 2.554688 -13.355469 L 1.417969 -13.355469 L 1.417969 0 L 2.554688 0 L 2.554688 -3.898438 C 2.554688 -5.46875 2.574219 -6.222656 2.933594 -6.925781 C 3.199219 -7.417969 3.839844 -8.191406 5.203125 -8.191406 C 7.039062 -8.191406 7.320312 -6.847656 7.320312 -5.714844 L 7.320312 0 Z M 8.417969 0 "/></g></g></g><g fill="#2563eb" fill-opacity="1"><g transform="translate(263.382356, 19.026694)"><g><path d="M 2.535156 0 L 2.535156 -13.355469 L 1.398438 -13.355469 L 1.398438 0 Z M 2.535156 0 "/></g></g></g><g fill="#2563eb" fill-opacity="1"><g transform="translate(266.598663, 19.026694)"><g><path d="M 2.0625 -4.503906 L 9.0625 -4.503906 L 9.0625 -4.671875 C 9.0625 -7.019531 7.550781 -9.25 4.996094 -9.25 C 2.894531 -9.25 0.832031 -7.679688 0.832031 -4.597656 C 0.832031 -3.027344 1.476562 0.226562 5.144531 0.226562 C 7.699219 0.226562 8.644531 -1.457031 9.0625 -2.382812 L 8.023438 -2.6875 C 7.152344 -0.964844 5.902344 -0.792969 5.089844 -0.792969 C 2.628906 -0.792969 2.0625 -2.894531 2.0625 -4.238281 Z M 2.082031 -5.429688 C 2.214844 -6.699219 3.066406 -8.25 4.976562 -8.25 C 5.960938 -8.25 7.511719 -7.757812 7.777344 -5.429688 Z M 2.082031 -5.429688 "/></g></g></g><g fill="#2563eb" fill-opacity="1"><g transform="translate(275.736732, 19.026694)"><g><path d="M 3.253906 -8.078125 L 5.242188 -8.078125 L 5.242188 -9.023438 L 3.253906 -9.023438 L 3.253906 -12.863281 L 2.175781 -12.863281 L 2.175781 -9.023438 L 0.285156 -9.023438 L 0.285156 -8.078125 L 2.175781 -8.078125 L 2.175781 -2.117188 C 2.175781 -1.628906 2.195312 -0.964844 2.308594 -0.644531 C 2.59375 0.152344 3.425781 0.171875 3.746094 0.171875 C 4.523438 0.171875 4.996094 -0.0585938 5.242188 -0.246094 L 5.242188 -1.382812 C 4.898438 -1.136719 4.445312 -0.8125 3.992188 -0.8125 C 3.328125 -0.8125 3.253906 -1.398438 3.253906 -1.910156 Z M 3.253906 -8.078125 "/></g></g></g><g fill="#2563eb" fill-opacity="1"><g transform="translate(280.542265, 19.026694)"><g><path d="M 2.0625 -4.503906 L 9.0625 -4.503906 L 9.0625 -4.671875 C 9.0625 -7.019531 7.550781 -9.25 4.996094 -9.25 C 2.894531 -9.25 0.832031 -7.679688 0.832031 -4.597656 C 0.832031 -3.027344 1.476562 0.226562 5.144531 0.226562 C 7.699219 0.226562 8.644531 -1.457031 9.0625 -2.382812 L 8.023438 -2.6875 C 7.152344 -0.964844 5.902344 -0.792969 5.089844 -0.792969 C 2.628906 -0.792969 2.0625 -2.894531 2.0625 -4.238281 Z M 2.082031 -5.429688 C 2.214844 -6.699219 3.066406 -8.25 4.976562 -8.25 C 5.960938 -8.25 7.511719 -7.757812 7.777344 -5.429688 Z M 2.082031 -5.429688 "/></g></g></g><g clip-path="url(#a9b761b869)"><g fill="#2563eb" fill-opacity="1"><g transform="translate(289.680352, 19.026694)"><g><path d="M 0.644531 -2.195312 C 1.609375 0.113281 3.519531 0.226562 4.277344 0.226562 C 6.8125 0.226562 7.644531 -1.4375 7.644531 -2.476562 C 7.644531 -3.878906 6.734375 -4.785156 5.144531 -5.109375 L 4.199219 -5.296875 C 3.425781 -5.449219 2.308594 -5.695312 2.308594 -6.753906 C 2.308594 -7.304688 2.554688 -8.269531 4.390625 -8.269531 C 5.296875 -8.269531 6.375 -7.964844 6.582031 -6.925781 L 7.644531 -7.207031 C 7.566406 -7.511719 7.359375 -8.171875 6.660156 -8.664062 C 5.828125 -9.25 4.710938 -9.25 4.445312 -9.25 C 3.652344 -9.25 2.609375 -9.0625 1.988281 -8.496094 C 1.269531 -7.851562 1.210938 -6.980469 1.210938 -6.660156 C 1.210938 -5.335938 2.15625 -4.710938 3.558594 -4.410156 L 4.617188 -4.179688 C 6.109375 -3.859375 6.566406 -3.328125 6.566406 -2.554688 C 6.566406 -1.757812 5.996094 -0.792969 4.257812 -0.792969 C 2.574219 -0.792969 1.890625 -1.949219 1.742188 -2.574219 Z M 0.644531 -2.195312 "/></g></g></g></g></g></g></svg>